<svg xmlns="http://www.w3.org/2000/svg" viewBox="0 0 1400 1050"><title>abstract-maltese-dog-portrait-in-low-poly-vector-design</title><g id="Background"><rect width="1400" height="1050" fill="#2e3842"/></g><g id="Design"><polygon points="1198.96 572.45 1195.45 539.06 1193.69 514.46 1168.2 456.46 1154.15 423.94 1125.15 375.62 1111.09 344.86 1098.79 300.04 1051.33 253.47 981.03 201.63 959.95 197.23 933.58 198.11 945.88 172.63 923.04 184.93 901.07 195.47 864.16 177.02 843.95 200.75 829.01 198.99 821.11 164.72 792.11 188.44 784.2 156.81 758.72 168.23 763.99 136.6 699.84 177.9 699.48 177.53 699.48 177 699.22 177.26 698.96 177 698.96 177.53 698.6 177.9 634.45 136.6 639.73 168.23 614.24 156.81 606.34 188.44 577.34 164.72 569.43 198.99 554.49 200.75 534.28 177.02 497.37 195.47 475.4 184.93 452.56 172.63 464.86 198.11 438.5 197.23 417.41 201.63 347.11 253.47 299.66 300.04 287.35 344.86 273.29 375.62 244.3 423.94 230.24 456.46 204.75 514.46 203 539.06 199.48 572.45 211.78 604.97 209.15 635.72 250.45 715.68 293.5 737.65 322.5 749.08 348.87 749.08 357.65 743.8 354.14 710.41 389.29 720.96 407.74 752.59 408.62 770.17 426.19 818.5 439.38 839.59 457.83 816.74 460.46 834.32 465.74 851.89 496.49 865.95 510.55 887.92 529.88 894.07 538.67 893.19 559.76 890.55 571.18 887.92 606.34 913.4 673.12 902.86 698.96 910.36 698.96 910.51 699.22 910.43 699.48 910.51 699.48 910.36 725.32 902.86 792.11 913.4 827.26 887.92 838.68 890.55 859.77 893.19 868.56 894.07 887.89 887.92 901.95 865.95 932.7 851.89 937.98 834.32 940.61 816.74 959.07 839.59 972.25 818.5 989.82 770.17 990.7 752.59 1009.15 720.96 1044.3 710.41 1040.79 743.8 1049.58 749.08 1075.94 749.08 1104.94 737.65 1147.99 715.68 1189.3 635.72 1186.66 604.97 1198.96 572.45" fill="#fff"/><polygon points="699.48 178.01 699.48 177 698.6 177.9 699.48 178.01" fill="#fefbf7"/><polygon points="699.48 243.81 699.48 178.01 698.6 177.9 699.48 243.81" fill="#fefaf2"/><polygon points="699.48 627.52 699.48 621.14 695.97 623.42 699.48 627.52" fill="#444e58"/><polygon points="699.48 476.79 699.48 452.94 692.45 474.91 699.48 476.79" fill="#fbf2ed"/><polygon points="699.48 613.75 699.48 596.18 691.57 613.75 699.48 613.75" fill="#d0c8cc"/><polygon points="695.97 623.42 699.48 621.14 699.48 613.75 691.57 613.75 695.97 623.42" fill="#666d7b"/><polygon points="691.57 633.96 699.48 634.89 699.48 627.52 695.97 623.42 691.57 633.96" fill="#5d5c6a"/><polygon points="699.48 649.32 699.48 634.89 691.57 633.96 699.48 649.32" fill="#5d5c6a"/><polygon points="699.48 664.02 699.48 649.32 691.57 633.96 699.48 664.02" fill="#5d5c6a"/><polygon points="699.48 790.38 699.48 774.08 690.69 795.65 699.48 790.38" fill="#2c3337"/><polygon points="699.48 840.47 699.48 797.41 690.69 795.65 699.48 840.47" fill="#8a7b77"/><polygon points="699.48 797.41 699.48 790.38 690.69 795.65 699.48 797.41" fill="#8a7b77"/><polygon points="699.48 694 699.48 684.75 689.81 688.45 699.48 694" fill="#060d0f"/><polygon points="699.48 684.75 699.48 669.11 689.81 688.45 699.48 684.75" fill="#040508"/><polygon points="699.48 385.75 699.48 380.68 688.94 381.77 699.48 385.75" fill="#f3e6db"/><polygon points="699.48 427.46 699.48 385.75 688.94 381.77 699.48 427.46" fill="#f4e7dd"/><polygon points="699.48 380.68 699.48 372.1 688.94 381.77 699.48 380.68" fill="#f4e7dd"/><polygon points="699.48 738.28 699.48 728.21 687.18 737.65 699.48 738.28" fill="#040404"/><polygon points="687.18 737.65 699.48 728.21 699.48 694 689.81 688.45 687.18 737.65" fill="#04070a"/><polygon points="699.48 754.22 699.48 738.28 687.18 737.65 699.48 754.22" fill="#0f171e"/><polygon points="699.48 769.64 699.48 754.22 687.18 737.65 699.48 769.64" fill="#0e151c"/><polygon points="699.48 910.06 699.48 900.22 687.18 900.22 699.48 910.06" fill="#86766d"/><polygon points="699.48 900.22 699.48 840.47 687.18 900.22 699.48 900.22" fill="#86766d"/><polygon points="691.57 613.75 699.48 596.18 685.42 598.81 691.57 613.75" fill="#f5edea"/><polygon points="699.48 275.88 699.48 243.81 684.54 278.08 699.48 275.88" fill="#fefdfa"/><polygon points="699.48 304.13 699.48 275.88 684.54 278.08 699.48 304.13" fill="#fefdfa"/><polygon points="691.57 613.75 685.42 598.81 681.03 609.36 691.57 613.75" fill="#cdc6cc"/><polygon points="699.48 372.1 699.48 342.15 678.39 340.47 699.48 372.1" fill="#f3ede7"/><polygon points="678.39 340.47 699.48 342.15 699.48 304.13 684.54 278.08 678.39 340.47" fill="#f3ede7"/><polygon points="688.94 381.77 699.48 372.1 678.39 340.47 688.94 381.77" fill="#f4e7dd"/><polygon points="678.39 836.07 699.48 840.47 690.69 795.65 678.39 836.07" fill="#8e7d76"/><polygon points="677.51 676.14 699.48 667.69 699.48 664.02 691.57 633.96 677.51 676.14" fill="#3d3f4d"/><polygon points="689.81 688.45 699.48 669.11 699.48 667.69 677.51 676.14 689.81 688.45" fill="#141b26"/><polygon points="699.48 452.94 699.48 427.46 676.63 442.4 699.48 452.94" fill="#dbc8c4"/><polygon points="692.45 474.91 699.48 452.94 676.63 442.4 692.45 474.91" fill="#dfd2d0"/><polygon points="699.48 520.17 699.48 483.65 676.63 503.03 699.48 520.17" fill="#fdfaf7"/><polygon points="676.63 503.03 699.48 483.65 699.48 476.79 692.45 474.91 676.63 503.03" fill="#fefefd"/><polygon points="699.48 546.65 699.48 524.27 675.75 561.91 699.48 546.65" fill="#fefcfa"/><polygon points="675.75 561.91 699.48 524.27 699.48 520.17 676.63 503.03 675.75 561.91" fill="#fefefd"/><polygon points="699.48 596.18 699.48 546.65 675.75 561.91 699.48 596.18" fill="#fefcfa"/><polygon points="685.42 598.81 699.48 596.18 675.75 561.91 685.42 598.81" fill="#f5ebe7"/><polygon points="674.88 623.42 691.57 613.75 681.03 609.36 674.88 623.42" fill="#92949c"/><polygon points="695.97 623.42 691.57 613.75 674.88 623.42 695.97 623.42" fill="#666d7b"/><polygon points="691.57 633.96 695.97 623.42 674.88 623.42 691.57 633.96" fill="#444e58"/><polygon points="673.12 902.86 699.48 910.51 699.48 910.06 687.18 900.22 673.12 902.86" fill="#786b65"/><polygon points="671.36 227.11 699.48 243.81 698.6 177.9 671.36 227.11" fill="#fefcf5"/><polygon points="684.54 278.08 699.48 243.81 671.36 227.11 684.54 278.08" fill="#fefbf4"/><polygon points="671.36 394.07 699.48 427.46 688.94 381.77 671.36 394.07" fill="#eaded1"/><polygon points="681.03 609.36 685.42 598.81 671.36 596.18 681.03 609.36" fill="#e7dddd"/><polygon points="685.42 598.81 675.75 561.91 671.36 596.18 685.42 598.81" fill="#e7e0e0"/><polygon points="687.18 737.65 689.81 688.45 671.36 717.44 687.18 737.65" fill="#070e12"/><polygon points="690.69 795.65 699.48 774.08 699.48 772.36 666.97 788.62 690.69 795.65" fill="#3e414a"/><polygon points="692.45 474.91 676.63 442.4 661.7 483.7 692.45 474.91" fill="#f9efe8"/><polygon points="676.63 503.03 692.45 474.91 661.7 483.7 676.63 503.03" fill="#f9eee8"/><polygon points="661.7 736.77 687.18 737.65 671.36 717.44 661.7 736.77" fill="#040404"/><polygon points="688.94 381.77 678.39 340.47 660.82 343.98 688.94 381.77" fill="#eaded1"/><polygon points="671.36 394.07 688.94 381.77 660.82 343.98 671.36 394.07" fill="#e4d6ca"/><polygon points="678.39 340.47 684.54 278.08 660.82 343.98 678.39 340.47" fill="#faf4ed"/><polygon points="676.63 442.4 659.94 430.98 661.7 483.7 676.63 442.4" fill="#faeee8"/><polygon points="676.63 442.4 699.48 427.46 659.94 430.98 676.63 442.4" fill="#e8dbd4"/><polygon points="659.94 430.98 699.48 427.46 671.36 394.07 659.94 430.98" fill="#e0d3cd"/><polygon points="674.88 623.42 681.03 609.36 659.94 620.78 674.88 623.42" fill="#90939a"/><polygon points="681.03 609.36 671.36 596.18 659.94 620.78 681.03 609.36" fill="#e5dbdf"/><polygon points="659.94 656.81 674.88 623.42 659.94 620.78 659.94 656.81" fill="#50525e"/><polygon points="677.51 676.14 691.57 633.96 659.94 656.81 677.51 676.14" fill="#444655"/><polygon points="659.94 656.81 691.57 633.96 674.88 623.42 659.94 656.81" fill="#5d606a"/><polygon points="659.06 771.05 687.18 737.65 661.7 736.77 659.06 771.05" fill="#26333b"/><polygon points="659.06 771.05 699.48 771.91 699.48 769.64 687.18 737.65 659.06 771.05" fill="#2e3842"/><polygon points="666.97 788.62 699.48 772.36 699.48 771.91 659.06 771.05 666.97 788.62" fill="#3e414a"/><polygon points="678.39 836.07 690.69 795.65 659.06 805.32 678.39 836.07" fill="#91817d"/><polygon points="690.69 795.65 666.97 788.62 659.06 805.32 690.69 795.65" fill="#8b7b78"/><polygon points="659.06 864.19 673.12 902.86 687.18 900.22 659.06 864.19" fill="#8b7774"/><polygon points="687.18 900.22 699.48 840.47 659.06 864.19 687.18 900.22" fill="#8e7d76"/><polygon points="659.06 864.19 699.48 840.47 678.39 836.07 659.06 864.19" fill="#8e7d76"/><polygon points="689.81 688.45 677.51 676.14 651.15 698.99 689.81 688.45" fill="#040404"/><polygon points="671.36 717.44 689.81 688.45 651.15 698.99 671.36 717.44" fill="#142029"/><polygon points="650.27 488.97 676.63 503.03 661.7 483.7 650.27 488.97" fill="#fdf7f5"/><polygon points="649.39 812.35 678.39 836.07 659.06 805.32 649.39 812.35" fill="#8c7b75"/><polygon points="659.06 864.19 678.39 836.07 649.39 812.35 659.06 864.19" fill="#8c7b75"/><polygon points="648.51 668.23 677.51 676.14 659.94 656.81 648.51 668.23" fill="#0a0e11"/><polygon points="651.15 698.99 677.51 676.14 647.63 681.41 651.15 698.99" fill="#040404"/><polygon points="647.63 681.41 677.51 676.14 648.51 668.23 647.63 681.41" fill="#040404"/><polygon points="659.06 805.32 647.63 783.35 649.39 812.35 659.06 805.32" fill="#77655d"/><polygon points="666.97 788.62 659.06 771.05 647.63 783.35 666.97 788.62" fill="#3b3e42"/><polygon points="659.06 805.32 666.97 788.62 647.63 783.35 659.06 805.32" fill="#8b7973"/><polygon points="659.94 430.98 671.36 394.07 645.88 406.37 659.94 430.98" fill="#d2c5c0"/><polygon points="675.75 561.91 676.63 503.03 641.48 519.73 675.75 561.91" fill="#fef3ec"/><polygon points="641.48 519.73 676.63 503.03 650.27 488.97 641.48 519.73" fill="#fef7f3"/><polygon points="641.48 864.19 659.06 864.19 649.39 812.35 641.48 864.19" fill="#84706a"/><polygon points="641.48 864.19 673.12 902.86 659.06 864.19 641.48 864.19" fill="#7a6e66"/><polygon points="698.6 177.9 639.73 168.23 671.36 227.11 698.6 177.9" fill="#fbf6f2"/><polygon points="684.54 278.08 671.36 227.11 637.97 271.05 684.54 278.08" fill="#faf4ed"/><polygon points="647.63 681.41 648.51 668.23 637.97 662.96 647.63 681.41" fill="#0f151c"/><polygon points="648.51 668.23 659.94 656.81 637.97 662.96 648.51 668.23" fill="#181d24"/><polygon points="635.33 365.07 671.36 394.07 660.82 343.98 635.33 365.07" fill="#ebdfd3"/><polygon points="645.88 406.37 671.36 394.07 635.33 365.07 645.88 406.37" fill="#f4ece3"/><polygon points="634.45 136.6 639.73 168.23 698.6 177.9 634.45 136.6" fill="#fcf9f4"/><polygon points="661.7 736.77 671.36 717.44 634.45 714.81 661.7 736.77" fill="#06080b"/><polygon points="671.36 717.44 651.15 698.99 634.45 714.81 671.36 717.44" fill="#090e14"/><polygon points="661.7 483.7 659.94 430.98 630.94 476.67 661.7 483.7" fill="#fcf2ef"/><polygon points="661.7 483.7 630.94 476.67 650.27 488.97 661.7 483.7" fill="#faefee"/><polygon points="637.97 662.96 659.94 656.81 630.06 640.99 637.97 662.96" fill="#35404c"/><polygon points="637.97 662.96 630.06 640.99 630.06 656.81 637.97 662.96" fill="#1b232c"/><polygon points="630.06 640.99 659.94 656.81 659.94 620.78 630.06 640.99" fill="#333e4a"/><polygon points="645.88 406.37 635.33 365.07 627.42 370.34 645.88 406.37" fill="#f1eae2"/><polygon points="647.63 783.35 659.06 771.05 624.79 741.17 647.63 783.35" fill="#363942"/><polygon points="624.79 741.17 659.06 771.05 661.7 736.77 624.79 741.17" fill="#2f3741"/><polygon points="624.79 741.17 661.7 736.77 634.45 714.81 624.79 741.17" fill="#3f4b54"/><polygon points="624.79 820.25 641.48 864.19 649.39 812.35 624.79 820.25" fill="#77655d"/><polygon points="649.39 812.35 647.63 783.35 624.79 820.25 649.39 812.35" fill="#756664"/><polygon points="623.91 532.91 675.75 561.91 641.48 519.73 623.91 532.91" fill="#eee1df"/><polygon points="623.91 532.91 641.48 519.73 623.91 504.79 623.91 532.91" fill="#dccdd0"/><polygon points="641.48 519.73 650.27 488.97 623.91 504.79 641.48 519.73" fill="#faefee"/><polygon points="650.27 488.97 630.94 476.67 623.91 504.79 650.27 488.97" fill="#ded3cf"/><polygon points="651.15 698.99 647.63 681.41 623.91 691.96 651.15 698.99" fill="#040404"/><polygon points="634.45 714.81 651.15 698.99 623.91 691.96 634.45 714.81" fill="#0e141e"/><polygon points="622.15 674.38 647.63 681.41 637.97 662.96 622.15 674.38" fill="#181d24"/><polygon points="623.91 691.96 647.63 681.41 622.15 674.38 623.91 691.96" fill="#1a2329"/><polygon points="622.15 674.38 637.97 662.96 630.06 656.81 622.15 674.38" fill="#28333c"/><polygon points="660.82 343.98 619.52 312.35 635.33 365.07 660.82 343.98" fill="#f8efe6"/><polygon points="660.82 343.98 684.54 278.08 619.52 312.35 660.82 343.98" fill="#f3ede6"/><polygon points="619.52 312.35 684.54 278.08 637.97 271.05 619.52 312.35" fill="#fff9f1"/><polygon points="615.12 878.25 673.12 902.86 641.48 864.19 615.12 878.25" fill="#786b65"/><polygon points="630.94 476.67 659.94 430.98 615.12 457.34 630.94 476.67" fill="#b6a4a6"/><polygon points="613.36 436.25 659.94 430.98 645.88 406.37 613.36 436.25" fill="#d2c3be"/><polygon points="615.12 457.34 659.94 430.98 613.36 436.25 615.12 457.34" fill="#c2b2ae"/><polygon points="623.91 504.79 630.94 476.67 612.49 488.09 623.91 504.79" fill="#dacacb"/><polygon points="630.94 476.67 615.12 457.34 612.49 488.09 630.94 476.67" fill="#b7a3a4"/><polygon points="647.63 783.35 624.79 741.17 612.49 753.47 647.63 783.35" fill="#6e6666"/><polygon points="610.73 400.22 645.88 406.37 627.42 370.34 610.73 400.22" fill="#e0d3cd"/><polygon points="613.36 436.25 645.88 406.37 610.73 400.22 613.36 436.25" fill="#d5c9c2"/><polygon points="671.36 227.11 639.73 168.23 609.85 224.47 671.36 227.11" fill="#f0eae6"/><polygon points="637.97 271.05 671.36 227.11 609.85 224.47 637.97 271.05" fill="#f5ede3"/><polygon points="609.85 517.97 623.91 532.91 623.91 504.79 609.85 517.97" fill="#d1bcc0"/><polygon points="610.73 540.82 623.91 532.91 609.85 517.97 610.73 540.82" fill="#745b65"/><polygon points="623.91 504.79 612.49 488.09 609.85 508.3 623.91 504.79" fill="#684e58"/><polygon points="609.85 517.97 623.91 504.79 609.85 508.3 609.85 517.97" fill="#dbcccf"/><polygon points="614.24 156.81 606.34 188.44 639.73 168.23 614.24 156.81" fill="#fefaf5"/><polygon points="639.73 168.23 606.34 188.44 609.85 224.47 639.73 168.23" fill="#fdfaf8"/><polygon points="606.34 913.4 673.12 902.86 615.12 878.25 606.34 913.4" fill="#746461"/><polygon points="627.42 370.34 601.94 355.4 610.73 400.22 627.42 370.34" fill="#e0d3cd"/><polygon points="627.42 370.34 635.33 365.07 601.94 355.4 627.42 370.34" fill="#f8efe9"/><polygon points="635.33 365.07 619.52 312.35 601.94 355.4 635.33 365.07" fill="#f4ede7"/><polygon points="623.91 691.96 622.15 674.38 601.94 670.87 623.91 691.96" fill="#c0b6b5"/><polygon points="630.06 656.81 630.06 640.99 601.94 670.87 630.06 656.81" fill="#97969c"/><polygon points="601.94 670.87 622.15 674.38 630.06 656.81 601.94 670.87" fill="#c1b6ba"/><polygon points="605.46 545.21 601.06 565.42 610.73 540.82 605.46 545.21" fill="#bfa8ad"/><polygon points="601.06 565.42 675.75 561.91 623.91 532.91 601.06 565.42" fill="#deccce"/><polygon points="601.06 565.42 623.91 532.91 610.73 540.82 601.06 565.42" fill="#dac7c8"/><polygon points="671.36 596.18 675.75 561.91 601.06 565.42 671.36 596.18" fill="#f5ebe8"/><polygon points="609.85 508.3 612.49 488.09 599.3 485.46 609.85 508.3" fill="#684e58"/><polygon points="612.49 488.09 615.12 457.34 595.79 462.61 612.49 488.09" fill="#b49e9e"/><polygon points="612.49 488.09 595.79 462.61 599.3 485.46 612.49 488.09" fill="#ae989a"/><polygon points="615.12 457.34 613.36 436.25 594.91 437.13 615.12 457.34" fill="#c9b0b0"/><polygon points="595.79 462.61 615.12 457.34 594.91 437.13 595.79 462.61" fill="#c2a9a9"/><polygon points="593.15 706.9 623.91 691.96 601.94 670.87 593.15 706.9" fill="#c0b6b5"/><polygon points="612.49 753.47 624.79 741.17 593.15 706.9 612.49 753.47" fill="#908a8a"/><polygon points="593.15 706.9 624.79 741.17 634.45 714.81 593.15 706.9" fill="#908a8a"/><polygon points="634.45 714.81 623.91 691.96 593.15 706.9 634.45 714.81" fill="#868588"/><polygon points="659.94 620.78 671.36 596.18 592.27 597.06 659.94 620.78" fill="#f6ece9"/><polygon points="671.36 596.18 601.06 565.42 592.27 597.06 671.36 596.18" fill="#eadfdd"/><polygon points="659.94 620.78 592.27 597.06 630.06 640.99 659.94 620.78" fill="#eae1df"/><polygon points="592.27 856.28 641.48 864.19 624.79 820.25 592.27 856.28" fill="#6b5c57"/><polygon points="615.12 878.25 641.48 864.19 592.27 856.28 615.12 878.25" fill="#6b5c57"/><polygon points="624.79 820.25 647.63 783.35 591.4 771.05 624.79 820.25" fill="#5f5654"/><polygon points="591.4 771.05 647.63 783.35 612.49 753.47 591.4 771.05" fill="#6d5e5d"/><polygon points="588.76 409.89 613.36 436.25 610.73 400.22 588.76 409.89" fill="#e7dcd6"/><polygon points="594.91 437.13 613.36 436.25 588.76 409.89 594.91 437.13" fill="#cabbb9"/><polygon points="609.85 508.3 599.3 485.46 588.76 499.52 609.85 508.3" fill="#885e6a"/><polygon points="587.88 513.58 609.85 517.97 609.85 508.3 587.88 513.58" fill="#695060"/><polygon points="587.88 513.58 609.85 508.3 588.76 499.52 587.88 513.58" fill="#100a11"/><polygon points="609.85 224.47 606.34 188.44 587 192.84 609.85 224.47" fill="#fcf7f4"/><polygon points="587 565.42 601.06 565.42 605.46 545.21 587 565.42" fill="#a38491"/><polygon points="619.52 312.35 637.97 271.05 586.12 285.98 619.52 312.35" fill="#f6efe9"/><polygon points="637.97 271.05 609.85 224.47 586.12 285.98 637.97 271.05" fill="#f5ede6"/><polygon points="586.12 521.49 609.85 517.97 587.88 513.58 586.12 521.49" fill="#916778"/><polygon points="610.73 540.82 609.85 517.97 586.12 521.49 610.73 540.82" fill="#866475"/><polygon points="605.46 545.21 610.73 540.82 586.12 521.49 605.46 545.21" fill="#9e7788"/><polygon points="595.79 462.61 594.91 437.13 584.37 454.7 595.79 462.61" fill="#8c7178"/><polygon points="588.76 499.52 599.3 485.46 582.61 493.37 588.76 499.52" fill="#23212b"/><polygon points="580.85 505.67 587.88 513.58 588.76 499.52 580.85 505.67" fill="#555465"/><polygon points="588.76 499.52 582.61 493.37 580.85 505.67 588.76 499.52" fill="#555465"/><polygon points="584.37 454.7 594.91 437.13 580.85 446.79 584.37 454.7" fill="#ccbcb9"/><polygon points="594.91 437.13 588.76 409.89 579.97 438.88 594.91 437.13" fill="#cebebb"/><polygon points="580.85 446.79 594.91 437.13 579.97 438.88 580.85 446.79" fill="#cebebb"/><polygon points="579.09 475.79 595.79 462.61 584.37 454.7 579.09 475.79" fill="#393138"/><polygon points="599.3 485.46 595.79 462.61 579.09 475.79 599.3 485.46" fill="#3a333c"/><polygon points="599.3 485.46 579.09 475.79 582.61 493.37 599.3 485.46" fill="#3a333c"/><polygon points="592.27 597.06 601.06 565.42 579.09 577.72 592.27 597.06" fill="#e7dcdb"/><polygon points="579.09 577.72 601.06 565.42 587 565.42 579.09 577.72" fill="#ae97a1"/><polygon points="579.09 577.72 587 565.42 578.22 554.88 579.09 577.72" fill="#9f8990"/><polygon points="587 565.42 605.46 545.21 578.22 554.88 587 565.42" fill="#ae97a1"/><polygon points="606.34 188.44 577.34 164.72 587 192.84 606.34 188.44" fill="#fcf9f4"/><polygon points="577.34 525 605.46 545.21 586.12 521.49 577.34 525" fill="#9b7685"/><polygon points="578.22 554.88 605.46 545.21 577.34 525 578.22 554.88" fill="#52404d"/><polygon points="586.12 521.49 587.88 513.58 577.34 525 586.12 521.49" fill="#2a212b"/><polygon points="577.34 525 587.88 513.58 580.85 505.67 577.34 525" fill="#0e1421"/><polygon points="601.94 670.87 630.06 640.99 577.34 641.87 601.94 670.87" fill="#cec2bd"/><polygon points="630.06 640.99 592.27 597.06 577.34 641.87 630.06 640.99" fill="#eae1df"/><polygon points="576.46 776.32 624.79 820.25 591.4 771.05 576.46 776.32" fill="#736665"/><polygon points="610.73 400.22 601.94 355.4 575.58 358.92 610.73 400.22" fill="#efe6de"/><polygon points="588.76 409.89 610.73 400.22 575.58 358.92 588.76 409.89" fill="#e7dcd6"/><polygon points="584.37 454.7 580.85 446.79 572.94 446.79 584.37 454.7" fill="#5d505a"/><polygon points="580.85 446.79 579.97 438.88 572.94 446.79 580.85 446.79" fill="#977e85"/><polygon points="571.18 887.92 606.34 913.4 615.12 878.25 571.18 887.92" fill="#806a65"/><polygon points="592.27 856.28 571.18 887.92 615.12 878.25 592.27 856.28" fill="#836c66"/><polygon points="570.31 837.83 592.27 856.28 624.79 820.25 570.31 837.83" fill="#806d68"/><polygon points="570.31 837.83 624.79 820.25 576.46 776.32 570.31 837.83" fill="#907873"/><polygon points="587 192.84 577.34 164.72 569.43 198.99 587 192.84" fill="#f8f3ef"/><polygon points="587 192.84 569.43 198.99 609.85 224.47 587 192.84" fill="#f3eee7"/><polygon points="566.79 330.8 619.52 312.35 586.12 285.98 566.79 330.8" fill="#fefbf7"/><polygon points="601.94 355.4 619.52 312.35 566.79 330.8 601.94 355.4" fill="#f9f3ed"/><polygon points="601.94 355.4 566.79 330.8 575.58 358.92 601.94 355.4" fill="#efe6de"/><polygon points="577.34 641.87 592.27 597.06 566.79 626.93 577.34 641.87" fill="#e1d0cb"/><polygon points="566.79 684.93 593.15 706.9 601.94 670.87 566.79 684.93" fill="#c9bab5"/><polygon points="601.94 670.87 577.34 641.87 566.79 684.93 601.94 670.87" fill="#d8c6bf"/><polygon points="576.46 776.32 591.4 771.05 566.79 752.59 576.46 776.32" fill="#866e68"/><polygon points="612.49 753.47 593.15 706.9 566.79 752.59 612.49 753.47" fill="#a3938e"/><polygon points="591.4 771.05 612.49 753.47 566.79 752.59 591.4 771.05" fill="#927e7b"/><polygon points="579.09 475.79 584.37 454.7 565.91 457.34 579.09 475.79" fill="#4e4250"/><polygon points="565.91 457.34 584.37 454.7 572.94 446.79 565.91 457.34" fill="#4f4351"/><polygon points="578.22 554.88 577.34 525 564.15 541.7 578.22 554.88" fill="#9f7c88"/><polygon points="562.4 507.43 577.34 525 580.85 505.67 562.4 507.43" fill="#212b37"/><polygon points="580.85 505.67 582.61 493.37 562.4 507.43 580.85 505.67" fill="#090c0d"/><polygon points="582.61 493.37 579.09 475.79 559.76 479.31 582.61 493.37" fill="#04060a"/><polygon points="559.76 479.31 579.09 475.79 565.91 457.34 559.76 479.31" fill="#090d0e"/><polygon points="592.27 597.06 579.09 577.72 559.76 588.27 592.27 597.06" fill="#e7dcdb"/><polygon points="566.79 626.93 592.27 597.06 559.76 588.27 566.79 626.93" fill="#ede2db"/><polygon points="564.15 541.7 577.34 525 558 531.15 564.15 541.7" fill="#463e4b"/><polygon points="562.4 507.43 582.61 493.37 558 489.85 562.4 507.43" fill="#071117"/><polygon points="582.61 493.37 559.76 479.31 558 489.85 582.61 493.37" fill="#071117"/><polygon points="572.94 446.79 557.13 437.13 565.91 457.34 572.94 446.79" fill="#73636a"/><polygon points="572.94 446.79 579.97 438.88 557.13 437.13 572.94 446.79" fill="#ab9c9d"/><polygon points="556.25 517.97 577.34 525 562.4 507.43 556.25 517.97" fill="#172029"/><polygon points="558 531.15 577.34 525 556.25 517.97 558 531.15" fill="#101720"/><polygon points="559.76 890.55 571.18 887.92 556.25 847.5 559.76 890.55" fill="#8a7a74"/><polygon points="556.25 847.5 571.18 887.92 592.27 856.28 556.25 847.5" fill="#8f857a"/><polygon points="556.25 847.5 592.27 856.28 570.31 837.83 556.25 847.5" fill="#89766d"/><polygon points="554.49 406.37 588.76 409.89 575.58 358.92 554.49 406.37" fill="#dfd5d0"/><polygon points="579.97 438.88 553.61 424.82 557.13 437.13 579.97 438.88" fill="#aa9b9c"/><polygon points="579.97 438.88 588.76 409.89 553.61 424.82 579.97 438.88" fill="#dfd5d0"/><polygon points="553.61 424.82 588.76 409.89 554.49 406.37 553.61 424.82" fill="#e7ddd8"/><polygon points="559.76 479.31 565.91 457.34 553.61 477.55 559.76 479.31" fill="#202f3b"/><polygon points="551.85 483.7 559.76 479.31 553.61 477.55 551.85 483.7" fill="#fff"/><polygon points="558 489.85 559.76 479.31 551.85 483.7 558 489.85" fill="#bfbfbf"/><polygon points="558 489.85 551.85 483.7 551.85 487.21 558 489.85" fill="#05080d"/><polygon points="558 531.15 556.25 517.97 548.34 539.06 558 531.15" fill="#040405"/><polygon points="564.15 541.7 558 531.15 548.34 539.06 564.15 541.7" fill="#1f1f25"/><polygon points="565.91 457.34 557.13 437.13 548.34 450.31 565.91 457.34" fill="#938385"/><polygon points="547.46 756.99 576.46 776.32 566.79 752.59 547.46 756.99" fill="#896f68"/><polygon points="559.76 588.27 579.09 577.72 546.58 580.36 559.76 588.27" fill="#77696f"/><polygon points="557.13 437.13 553.61 424.82 545.7 434.49 557.13 437.13" fill="#e4dcd9"/><polygon points="557.13 437.13 545.7 434.49 548.34 450.31 557.13 437.13" fill="#938385"/><polygon points="553.61 477.55 565.91 457.34 544.82 461.73 553.61 477.55" fill="#05070a"/><polygon points="544.82 461.73 565.91 457.34 548.34 450.31 544.82 461.73" fill="#655d66"/><polygon points="544.82 823.77 556.25 847.5 570.31 837.83 544.82 823.77" fill="#7a6763"/><polygon points="544.82 823.77 570.31 837.83 576.46 776.32 544.82 823.77" fill="#76625c"/><polygon points="547.46 756.99 544.82 823.77 576.46 776.32 547.46 756.99" fill="#896f68"/><polygon points="542.19 564.54 579.09 577.72 578.22 554.88 542.19 564.54" fill="#6f6066"/><polygon points="546.58 580.36 579.09 577.72 542.19 564.54 546.58 580.36" fill="#cabcba"/><polygon points="542.19 564.54 578.22 554.88 564.15 541.7 542.19 564.54" fill="#75656b"/><polygon points="548.34 539.06 542.19 564.54 564.15 541.7 548.34 539.06" fill="#5e5256"/><polygon points="566.79 626.93 542.19 643.63 577.34 641.87 566.79 626.93" fill="#e1d0cb"/><polygon points="577.34 641.87 542.19 643.63 566.79 684.93 577.34 641.87" fill="#d5c5bc"/><polygon points="538.67 893.19 559.76 890.55 556.25 847.5 538.67 893.19" fill="#948e83"/><polygon points="556.25 517.97 562.4 507.43 536.91 501.27 556.25 517.97" fill="#040505"/><polygon points="536.91 501.27 562.4 507.43 558 489.85 536.91 501.27" fill="#040707"/><polygon points="536.91 501.27 558 489.85 551.85 487.21 536.91 501.27" fill="#040707"/><polygon points="569.43 198.99 554.49 200.75 536.04 258.74 569.43 198.99" fill="#f6f2ee"/><polygon points="609.85 224.47 536.04 258.74 586.12 285.98 609.85 224.47" fill="#fbf6f2"/><polygon points="569.43 198.99 536.04 258.74 609.85 224.47 569.43 198.99" fill="#fbf6f2"/><polygon points="548.34 450.31 545.7 434.49 536.04 446.79 548.34 450.31" fill="#a89a9a"/><polygon points="548.34 450.31 536.04 446.79 544.82 461.73 548.34 450.31" fill="#726e79"/><polygon points="535.16 722.72 547.46 756.99 566.79 752.59 535.16 722.72" fill="#b49c97"/><polygon points="535.16 722.72 593.15 706.9 566.79 684.93 535.16 722.72" fill="#ccb7b0"/><polygon points="566.79 752.59 593.15 706.9 535.16 722.72 566.79 752.59" fill="#b49c97"/><polygon points="536.04 258.74 554.49 200.75 533.4 217.44 536.04 258.74" fill="#fcf9f6"/><polygon points="554.49 200.75 534.28 177.02 533.4 217.44 554.49 200.75" fill="#f6f2ee"/><polygon points="586.12 285.98 536.04 258.74 532.52 300.04 586.12 285.98" fill="#fdf8f3"/><polygon points="586.12 285.98 532.52 300.04 566.79 330.8 586.12 285.98" fill="#fdf8f3"/><polygon points="566.79 330.8 532.52 300.04 534.28 328.16 566.79 330.8" fill="#f3ebe3"/><polygon points="532.52 553.12 542.19 564.54 548.34 539.06 532.52 553.12" fill="#756669"/><polygon points="536.04 446.79 545.7 434.49 532.52 437.13 536.04 446.79" fill="#a19393"/><polygon points="544.82 461.73 536.04 446.79 530.76 460.85 544.82 461.73" fill="#636370"/><polygon points="530.76 554 542.19 564.54 532.52 553.12 530.76 554" fill="#8d8283"/><polygon points="529.01 535.54 530.76 554 532.52 553.12 529.01 535.54" fill="#504951"/><polygon points="532.52 553.12 548.34 539.06 529.01 535.54 532.52 553.12" fill="#504951"/><polygon points="548.34 539.06 556.25 517.97 529.01 535.54 548.34 539.06" fill="#080b14"/><polygon points="529.01 535.54 556.25 517.97 536.91 501.27 529.01 535.54" fill="#0d1119"/><polygon points="529.01 839.59 556.25 847.5 544.82 823.77 529.01 839.59" fill="#948c82"/><polygon points="526.37 464.37 544.82 461.73 530.76 460.85 526.37 464.37" fill="#040405"/><polygon points="575.58 358.92 525.49 353.65 554.49 406.37 575.58 358.92" fill="#e7ddd8"/><polygon points="575.58 358.92 566.79 330.8 525.49 353.65 575.58 358.92" fill="#efe6e1"/><polygon points="525.49 353.65 566.79 330.8 534.28 328.16 525.49 353.65" fill="#efe6e1"/><polygon points="554.49 406.37 525.49 353.65 525.49 413.4 554.49 406.37" fill="#e4dbd3"/><polygon points="545.7 434.49 553.61 424.82 525.49 413.4 545.7 434.49" fill="#cabdba"/><polygon points="545.7 434.49 525.49 413.4 532.52 437.13 545.7 434.49" fill="#c7bdb9"/><polygon points="553.61 424.82 554.49 406.37 525.49 413.4 553.61 424.82" fill="#e3d8d2"/><polygon points="553.61 477.55 544.82 461.73 525.49 481.94 553.61 477.55" fill="#091117"/><polygon points="525.49 481.94 544.82 461.73 526.37 464.37 525.49 481.94" fill="#040505"/><polygon points="551.85 483.7 553.61 477.55 525.49 481.94 551.85 483.7" fill="#081017"/><polygon points="551.85 487.21 551.85 483.7 525.49 481.94 551.85 487.21" fill="#060d14"/><polygon points="525.49 481.94 536.91 501.27 551.85 487.21 525.49 481.94" fill="#04070a"/><polygon points="521.98 496.88 536.91 501.27 525.49 481.94 521.98 496.88" fill="#0e141a"/><polygon points="532.52 437.13 525.49 413.4 520.22 423.07 532.52 437.13" fill="#c7bdb9"/><polygon points="529.88 894.07 538.67 893.19 520.22 877.37 529.88 894.07" fill="#9d978f"/><polygon points="520.22 877.37 538.67 893.19 556.25 847.5 520.22 877.37" fill="#978d82"/><polygon points="520.22 877.37 556.25 847.5 529.01 839.59 520.22 877.37" fill="#978d82"/><polygon points="542.19 564.54 517.58 599.69 546.58 580.36 542.19 564.54" fill="#b09f9f"/><polygon points="530.76 554 517.58 599.69 542.19 564.54 530.76 554" fill="#948d8a"/><polygon points="546.58 580.36 517.58 599.69 559.76 588.27 546.58 580.36" fill="#ab9c9b"/><polygon points="559.76 588.27 517.58 599.69 566.79 626.93 559.76 588.27" fill="#ebe0db"/><polygon points="517.58 599.69 542.19 643.63 566.79 626.93 517.58 599.69" fill="#ebdfd8"/><polygon points="525.49 413.4 525.49 353.65 516.7 409.89 525.49 413.4" fill="#e5ddd8"/><polygon points="525.49 413.4 516.7 409.89 520.22 423.07 525.49 413.4" fill="#c7bdb9"/><polygon points="542.19 643.63 516.7 682.29 566.79 684.93 542.19 643.63" fill="#d8c3bb"/><polygon points="516.7 682.29 535.16 722.72 566.79 684.93 516.7 682.29" fill="#d6beb5"/><polygon points="514.95 506.55 529.01 535.54 536.91 501.27 514.95 506.55" fill="#182024"/><polygon points="514.95 506.55 536.91 501.27 521.98 496.88 514.95 506.55" fill="#0e1317"/><polygon points="514.07 534.67 530.76 554 529.01 535.54 514.07 534.67" fill="#39373c"/><polygon points="514.07 534.67 529.01 535.54 514.95 506.55 514.07 534.67" fill="#303439"/><polygon points="535.16 722.72 510.55 752.59 547.46 756.99 535.16 722.72" fill="#b69b95"/><polygon points="510.55 887.92 529.88 894.07 520.22 877.37 510.55 887.92" fill="#aba093"/><polygon points="509.67 831.68 529.01 839.59 544.82 823.77 509.67 831.68" fill="#8a776d"/><polygon points="533.4 217.44 507.92 221.84 536.04 258.74 533.4 217.44" fill="#fefdfb"/><polygon points="525.49 481.94 507.92 481.94 521.98 496.88 525.49 481.94" fill="#1b2127"/><polygon points="521.98 496.88 507.92 481.94 514.95 506.55 521.98 496.88" fill="#1f252d"/><polygon points="526.37 464.37 507.92 481.94 525.49 481.94 526.37 464.37" fill="#060605"/><polygon points="506.16 465.25 507.92 481.94 526.37 464.37 506.16 465.25" fill="#989294"/><polygon points="520.22 423.07 505.28 450.31 532.52 437.13 520.22 423.07" fill="#c5beb9"/><polygon points="526.37 464.37 505.28 450.31 506.16 465.25 526.37 464.37" fill="#7c727d"/><polygon points="530.76 460.85 505.28 450.31 526.37 464.37 530.76 460.85" fill="#636370"/><polygon points="532.52 437.13 505.28 450.31 536.04 446.79 532.52 437.13" fill="#c5b8b6"/><polygon points="536.04 446.79 505.28 450.31 530.76 460.85 536.04 446.79" fill="#655d66"/><polygon points="505.28 514.46 514.07 534.67 514.95 506.55 505.28 514.46" fill="#16171a"/><polygon points="507.92 481.94 505.28 514.46 514.95 506.55 507.92 481.94" fill="#322b32"/><polygon points="516.7 409.89 525.49 353.65 501.76 380.01 516.7 409.89" fill="#e1d9d1"/><polygon points="500.89 793.89 509.67 831.68 544.82 823.77 500.89 793.89" fill="#978e85"/><polygon points="500.89 793.89 544.82 823.77 547.46 756.99 500.89 793.89" fill="#8a776d"/><polygon points="510.55 752.59 500.89 793.89 547.46 756.99 510.55 752.59" fill="#cfb7ae"/><polygon points="534.28 177.02 497.37 195.47 533.4 217.44 534.28 177.02" fill="#fdfaf8"/><polygon points="533.4 217.44 497.37 195.47 507.92 221.84 533.4 217.44" fill="#e7e5de"/><polygon points="496.49 865.95 510.55 887.92 520.22 877.37 496.49 865.95" fill="#96908a"/><polygon points="529.01 839.59 496.49 865.95 520.22 877.37 529.01 839.59" fill="#97918b"/><polygon points="509.67 831.68 496.49 865.95 529.01 839.59 509.67 831.68" fill="#97918b"/><polygon points="501.76 380.01 493.86 402.86 516.7 409.89 501.76 380.01" fill="#f3ebe4"/><polygon points="520.22 423.07 492.1 414.28 505.28 450.31 520.22 423.07" fill="#c8c2bb"/><polygon points="516.7 409.89 492.1 414.28 520.22 423.07 516.7 409.89" fill="#dfd7d1"/><polygon points="493.86 402.86 492.1 414.28 516.7 409.89 493.86 402.86" fill="#dfd7d1"/><polygon points="505.28 514.46 490.34 539.94 514.07 534.67 505.28 514.46" fill="#897e7c"/><polygon points="490.34 539.94 517.58 599.69 530.76 554 490.34 539.94" fill="#8f8684"/><polygon points="490.34 539.94 530.76 554 514.07 534.67 490.34 539.94" fill="#a19897"/><polygon points="489.46 836.07 496.49 865.95 509.67 831.68 489.46 836.07" fill="#b2a49b"/><polygon points="532.52 300.04 536.04 258.74 487.7 255.23 532.52 300.04" fill="#fefcfa"/><polygon points="536.04 258.74 507.92 221.84 487.7 255.23 536.04 258.74" fill="#fefdfb"/><polygon points="507.92 221.84 497.37 195.47 482.43 226.23 507.92 221.84" fill="#eeebe3"/><polygon points="507.92 221.84 482.43 226.23 487.7 255.23 507.92 221.84" fill="#fefdfb"/><polygon points="534.28 328.16 481.55 327.29 525.49 353.65 534.28 328.16" fill="#f0eae2"/><polygon points="534.28 328.16 532.52 300.04 481.55 327.29 534.28 328.16" fill="#f9f2ed"/><polygon points="525.49 353.65 481.55 327.29 501.76 380.01 525.49 353.65" fill="#f4ebe5"/><polygon points="532.52 300.04 487.7 255.23 478.04 305.32 532.52 300.04" fill="#f5ede3"/><polygon points="481.55 327.29 532.52 300.04 478.04 305.32 481.55 327.29" fill="#f9f3ee"/><polygon points="476.28 470.52 507.92 481.94 506.16 465.25 476.28 470.52" fill="#9d9089"/><polygon points="505.28 450.31 476.28 470.52 506.16 465.25 505.28 450.31" fill="#b9aeab"/><polygon points="505.28 450.31 492.1 414.28 476.28 470.52 505.28 450.31" fill="#c5beb9"/><polygon points="475.4 816.74 509.67 831.68 500.89 793.89 475.4 816.74" fill="#bbafa7"/><polygon points="489.46 836.07 509.67 831.68 475.4 816.74 489.46 836.07" fill="#baaea5"/><polygon points="471.01 524.12 490.34 539.94 505.28 514.46 471.01 524.12" fill="#8a8680"/><polygon points="516.7 682.29 469.25 742.05 535.16 722.72 516.7 682.29" fill="#dac6be"/><polygon points="469.25 742.05 510.55 752.59 535.16 722.72 469.25 742.05" fill="#d6c1b7"/><polygon points="465.74 492.49 471.01 524.12 505.28 514.46 465.74 492.49" fill="#9e9690"/><polygon points="507.92 481.94 465.74 492.49 505.28 514.46 507.92 481.94" fill="#7d7872"/><polygon points="476.28 470.52 465.74 492.49 507.92 481.94 476.28 470.52" fill="#a69891"/><polygon points="465.74 851.89 496.49 865.95 489.46 836.07 465.74 851.89" fill="#bcb3ae"/><polygon points="497.37 195.47 464.86 198.11 482.43 226.23 497.37 195.47" fill="#eeebe3"/><polygon points="475.4 184.93 464.86 198.11 497.37 195.47 475.4 184.93" fill="#ebe6e2"/><polygon points="478.04 305.32 487.7 255.23 463.98 283.35 478.04 305.32" fill="#fefdfa"/><polygon points="478.04 305.32 463.1 306.19 481.55 327.29 478.04 305.32" fill="#f9f3ee"/><polygon points="463.98 283.35 463.1 306.19 478.04 305.32 463.98 283.35" fill="#fdf7f1"/><polygon points="475.4 816.74 460.46 834.32 489.46 836.07 475.4 816.74" fill="#9f9894"/><polygon points="460.46 834.32 465.74 851.89 489.46 836.07 460.46 834.32" fill="#b1a8a1"/><polygon points="459.59 772.8 475.4 816.74 500.89 793.89 459.59 772.8" fill="#bcb3ae"/><polygon points="510.55 752.59 459.59 772.8 500.89 793.89 510.55 752.59" fill="#beb0a5"/><polygon points="469.25 742.05 459.59 772.8 510.55 752.59 469.25 742.05" fill="#d6c1b7"/><polygon points="482.43 226.23 464.86 198.11 458.71 237.65 482.43 226.23" fill="#f3ede7"/><polygon points="482.43 226.23 458.71 237.65 487.7 255.23 482.43 226.23" fill="#fefdfb"/><polygon points="457.83 572.45 517.58 599.69 490.34 539.94 457.83 572.45" fill="#c2b8b5"/><polygon points="471.01 524.12 457.83 572.45 490.34 539.94 471.01 524.12" fill="#8a8680"/><polygon points="457.83 816.74 460.46 834.32 475.4 816.74 457.83 816.74" fill="#bbb2ad"/><polygon points="459.59 772.8 457.83 816.74 475.4 816.74 459.59 772.8" fill="#bbb0a8"/><polygon points="481.55 327.29 463.1 306.19 453.44 343.98 481.55 327.29" fill="#f4ece6"/><polygon points="501.76 380.01 481.55 327.29 453.44 343.98 501.76 380.01" fill="#f8efe9"/><polygon points="452.56 172.63 464.86 198.11 475.4 184.93 452.56 172.63" fill="#eeebe3"/><polygon points="457.83 572.45 450.8 631.33 517.58 599.69 457.83 572.45" fill="#bab2aa"/><polygon points="517.58 599.69 450.8 631.33 542.19 643.63 517.58 599.69" fill="#bdb2ad"/><polygon points="542.19 643.63 450.8 631.33 516.7 682.29 542.19 643.63" fill="#ebded8"/><polygon points="463.98 283.35 449.92 270.17 463.1 306.19 463.98 283.35" fill="#fef9f5"/><polygon points="487.7 255.23 449.92 270.17 463.98 283.35 487.7 255.23" fill="#fefbf8"/><polygon points="487.7 255.23 458.71 237.65 449.92 270.17 487.7 255.23" fill="#f5ede3"/><polygon points="448.16 361.56 493.86 402.86 501.76 380.01 448.16 361.56" fill="#f6eee8"/><polygon points="501.76 380.01 453.44 343.98 448.16 361.56 501.76 380.01" fill="#f6eee8"/><polygon points="442.89 689.32 469.25 742.05 516.7 682.29 442.89 689.32" fill="#d6ccc6"/><polygon points="450.8 631.33 442.89 689.32 516.7 682.29 450.8 631.33" fill="#cfc7c2"/><polygon points="464.86 198.11 438.5 197.23 458.71 237.65 464.86 198.11" fill="#f3ede7"/><polygon points="437.62 786.86 457.83 816.74 459.59 772.8 437.62 786.86" fill="#d3c3bb"/><polygon points="463.1 306.19 430.59 319.38 453.44 343.98 463.1 306.19" fill="#f4ece7"/><polygon points="463.1 306.19 449.92 270.17 430.59 319.38 463.1 306.19" fill="#fdf7f1"/><polygon points="492.1 414.28 429.71 440.64 476.28 470.52 492.1 414.28" fill="#c1b7b2"/><polygon points="428.83 762.26 459.59 772.8 469.25 742.05 428.83 762.26" fill="#e3d3ca"/><polygon points="437.62 786.86 459.59 772.8 428.83 762.26 437.62 786.86" fill="#d6c1b7"/><polygon points="492.1 414.28 427.95 416.04 429.71 440.64 492.1 414.28" fill="#ece3dd"/><polygon points="493.86 402.86 427.95 416.04 492.1 414.28 493.86 402.86" fill="#f6eee8"/><polygon points="465.74 492.49 427.95 534.67 471.01 524.12 465.74 492.49" fill="#7d7872"/><polygon points="427.95 534.67 457.83 572.45 471.01 524.12 427.95 534.67" fill="#8a8680"/><polygon points="426.19 387.92 493.86 402.86 448.16 361.56 426.19 387.92" fill="#f9f0ec"/><polygon points="426.19 387.92 427.95 416.04 493.86 402.86 426.19 387.92" fill="#f8efeb"/><polygon points="442.89 689.32 426.19 747.32 469.25 742.05 442.89 689.32" fill="#cac4bc"/><polygon points="426.19 747.32 428.83 762.26 469.25 742.05 426.19 747.32" fill="#d0c7c0"/><polygon points="439.38 839.59 457.83 816.74 426.19 818.5 439.38 839.59" fill="#b4aca9"/><polygon points="426.19 818.5 457.83 816.74 437.62 786.86 426.19 818.5" fill="#bdb0a6"/><polygon points="425.31 463.49 465.74 492.49 476.28 470.52 425.31 463.49" fill="#bcb5ae"/><polygon points="429.71 440.64 425.31 463.49 476.28 470.52 429.71 440.64" fill="#c2b8b4"/><polygon points="425.31 607.6 450.8 631.33 457.83 572.45 425.31 607.6" fill="#92908a"/><polygon points="427.95 534.67 425.31 607.6 457.83 572.45 427.95 534.67" fill="#c0bbb6"/><polygon points="419.16 365.07 426.19 387.92 448.16 361.56 419.16 365.07" fill="#eee5df"/><polygon points="453.44 343.98 419.16 365.07 448.16 361.56 453.44 343.98" fill="#f1eae3"/><polygon points="453.44 343.98 430.59 319.38 419.16 365.07 453.44 343.98" fill="#f1ebe3"/><polygon points="458.71 237.65 438.5 197.23 412.13 232.38 458.71 237.65" fill="#f3ede7"/><polygon points="438.5 197.23 417.41 201.63 412.13 232.38 438.5 197.23" fill="#f9f0ec"/><polygon points="458.71 237.65 412.13 232.38 449.92 270.17 458.71 237.65" fill="#dfd9d1"/><polygon points="409.5 517.97 427.95 534.67 465.74 492.49 409.5 517.97" fill="#837f78"/><polygon points="425.31 463.49 409.5 517.97 465.74 492.49 425.31 463.49" fill="#a6a19a"/><polygon points="428.83 762.26 408.62 770.17 437.62 786.86 428.83 762.26" fill="#d3c3bb"/><polygon points="408.62 770.17 426.19 818.5 437.62 786.86 408.62 770.17" fill="#9f9894"/><polygon points="426.19 747.32 407.74 752.59 428.83 762.26 426.19 747.32" fill="#d6ccc6"/><polygon points="407.74 752.59 408.62 770.17 428.83 762.26 407.74 752.59" fill="#bcbab6"/><polygon points="405.1 704.26 426.19 747.32 442.89 689.32 405.1 704.26" fill="#bebcb8"/><polygon points="399.83 385.28 427.95 416.04 426.19 387.92 399.83 385.28" fill="#ebe3dd"/><polygon points="419.16 365.07 399.83 385.28 426.19 387.92 419.16 365.07" fill="#eae2db"/><polygon points="449.92 270.17 398.95 272.8 430.59 319.38 449.92 270.17" fill="#dfd6cf"/><polygon points="449.92 270.17 412.13 232.38 398.95 272.8 449.92 270.17" fill="#dfd9d1"/><polygon points="395.44 361.56 399.83 385.28 419.16 365.07 395.44 361.56" fill="#b1a9a1"/><polygon points="430.59 319.38 395.44 361.56 419.16 365.07 430.59 319.38" fill="#e1dbd2"/><polygon points="425.31 607.6 391.92 696.35 450.8 631.33 425.31 607.6" fill="#9d9891"/><polygon points="450.8 631.33 391.92 696.35 442.89 689.32 450.8 631.33" fill="#9e9994"/><polygon points="391.92 696.35 405.1 704.26 442.89 689.32 391.92 696.35" fill="#b0aaa3"/><polygon points="391.92 696.35 389.29 720.96 405.1 704.26 391.92 696.35" fill="#b9b5b1"/><polygon points="389.29 720.96 407.74 752.59 426.19 747.32 389.29 720.96" fill="#bcbab6"/><polygon points="405.1 704.26 389.29 720.96 426.19 747.32 405.1 704.26" fill="#c3bfbb"/><polygon points="398.95 272.8 382.26 337.83 430.59 319.38 398.95 272.8" fill="#dbd1cb"/><polygon points="430.59 319.38 382.26 337.83 395.44 361.56 430.59 319.38" fill="#beb6ad"/><polygon points="429.71 440.64 381.38 448.55 425.31 463.49 429.71 440.64" fill="#c4bebb"/><polygon points="427.95 416.04 381.38 448.55 429.71 440.64 427.95 416.04" fill="#d4cbc8"/><polygon points="376.11 601.45 391.92 696.35 425.31 607.6 376.11 601.45" fill="#9d9a97"/><polygon points="376.11 601.45 425.31 607.6 427.95 534.67 376.11 601.45" fill="#c0bbb6"/><polygon points="409.5 517.97 376.11 601.45 427.95 534.67 409.5 517.97" fill="#868682"/><polygon points="412.13 232.38 417.41 201.63 373.47 252.59 412.13 232.38" fill="#f9f0ec"/><polygon points="412.13 232.38 373.47 252.59 398.95 272.8 412.13 232.38" fill="#eee5dc"/><polygon points="370.83 485.46 409.5 517.97 425.31 463.49 370.83 485.46" fill="#8c8a82"/><polygon points="381.38 448.55 370.83 485.46 425.31 463.49 381.38 448.55" fill="#c5c0bd"/><polygon points="399.83 385.28 367.32 423.07 427.95 416.04 399.83 385.28" fill="#fef8f3"/><polygon points="427.95 416.04 367.32 423.07 381.38 448.55 427.95 416.04" fill="#bdb8b5"/><polygon points="354.14 710.41 389.29 720.96 391.92 696.35 354.14 710.41" fill="#bab5b0"/><polygon points="398.95 272.8 350.62 299.17 382.26 337.83 398.95 272.8" fill="#e6dbd3"/><polygon points="373.47 252.59 350.62 299.17 398.95 272.8 373.47 252.59" fill="#eee5dc"/><polygon points="382.26 337.83 350.62 299.17 347.99 311.47 382.26 337.83" fill="#dbd1cb"/><polygon points="382.26 337.83 347.99 384.4 395.44 361.56 382.26 337.83" fill="#c0b6ae"/><polygon points="395.44 361.56 347.99 384.4 399.83 385.28 395.44 361.56" fill="#b9b0a9"/><polygon points="347.99 384.4 367.32 423.07 399.83 385.28 347.99 384.4" fill="#eae2dd"/><polygon points="373.47 252.59 347.11 253.47 350.62 299.17 373.47 252.59" fill="#fefcf9"/><polygon points="417.41 201.63 347.11 253.47 373.47 252.59 417.41 201.63" fill="#f9f0ec"/><polygon points="344.47 581.24 376.11 601.45 409.5 517.97 344.47 581.24" fill="#878682"/><polygon points="357.65 743.8 354.14 710.41 341.84 729.75 357.65 743.8" fill="#a09f99"/><polygon points="348.87 749.08 357.65 743.8 341.84 729.75 348.87 749.08" fill="#a9a59e"/><polygon points="347.99 311.47 337.44 343.98 382.26 337.83 347.99 311.47" fill="#cfc7bb"/><polygon points="337.44 343.98 347.99 384.4 382.26 337.83 337.44 343.98" fill="#c0b5af"/><polygon points="337.44 545.21 409.5 517.97 370.83 485.46 337.44 545.21" fill="#8c8882"/><polygon points="344.47 581.24 409.5 517.97 337.44 545.21 344.47 581.24" fill="#6f7571"/><polygon points="341.84 729.75 354.14 710.41 333.05 686.69 341.84 729.75" fill="#9e9e97"/><polygon points="333.05 686.69 354.14 710.41 391.92 696.35 333.05 686.69" fill="#94928e"/><polygon points="347.99 311.47 328.65 302.68 337.44 343.98 347.99 311.47" fill="#fcf7f2"/><polygon points="350.62 299.17 328.65 302.68 347.99 311.47 350.62 299.17" fill="#faf4ef"/><polygon points="350.62 299.17 347.11 253.47 328.65 302.68 350.62 299.17" fill="#fefcf9"/><polygon points="322.5 637.48 391.92 696.35 376.11 601.45 322.5 637.48" fill="#979894"/><polygon points="333.05 686.69 391.92 696.35 322.5 637.48 333.05 686.69" fill="#a9a6a2"/><polygon points="322.5 749.08 348.87 749.08 341.84 729.75 322.5 749.08" fill="#b5b0ad"/><polygon points="328.65 302.68 319.87 343.98 337.44 343.98 328.65 302.68" fill="#fcf7f2"/><polygon points="381.38 448.55 319.87 470.52 370.83 485.46 381.38 448.55" fill="#a19d99"/><polygon points="367.32 423.07 319.87 470.52 381.38 448.55 367.32 423.07" fill="#bdb8b5"/><polygon points="316.35 606.72 376.11 601.45 344.47 581.24 316.35 606.72" fill="#9b9a9a"/><polygon points="322.5 637.48 376.11 601.45 316.35 606.72 322.5 637.48" fill="#b6b0a8"/><polygon points="341.84 729.75 333.05 686.69 315.47 732.38 341.84 729.75" fill="#95938e"/><polygon points="315.47 732.38 322.5 749.08 341.84 729.75 315.47 732.38" fill="#a9a59e"/><polygon points="347.99 384.4 313.72 434.49 367.32 423.07 347.99 384.4" fill="#9d9890"/><polygon points="367.32 423.07 313.72 434.49 319.87 470.52 367.32 423.07" fill="#868a84"/><polygon points="311.96 365.95 313.72 434.49 347.99 384.4 311.96 365.95" fill="#b9b0a9"/><polygon points="337.44 343.98 311.96 365.95 347.99 384.4 337.44 343.98" fill="#c5bcb4"/><polygon points="319.87 343.98 311.96 365.95 337.44 343.98 319.87 343.98" fill="#e7e0d9"/><polygon points="337.44 545.21 307.56 575.97 344.47 581.24 337.44 545.21" fill="#b7b5b0"/><polygon points="307.56 575.97 316.35 606.72 344.47 581.24 307.56 575.97" fill="#a39f9b"/><polygon points="303.17 540.82 307.56 575.97 337.44 545.21 303.17 540.82" fill="#73726b"/><polygon points="303.17 540.82 337.44 545.21 302.29 517.09 303.17 540.82" fill="#5d5e59"/><polygon points="302.29 517.09 337.44 545.21 370.83 485.46 302.29 517.09" fill="#9c9690"/><polygon points="370.83 485.46 319.87 470.52 302.29 517.09 370.83 485.46" fill="#989592"/><polygon points="328.65 302.68 299.66 300.04 319.87 343.98 328.65 302.68" fill="#e3dfdc"/><polygon points="347.11 253.47 299.66 300.04 328.65 302.68 347.11 253.47" fill="#f5efeb"/><polygon points="293.5 737.65 322.5 749.08 315.47 732.38 293.5 737.65" fill="#ada8a5"/><polygon points="319.87 343.98 287.35 344.86 311.96 365.95 319.87 343.98" fill="#f6f0eb"/><polygon points="299.66 300.04 287.35 344.86 319.87 343.98 299.66 300.04" fill="#e3dfdc"/><polygon points="319.87 470.52 313.72 434.49 279.44 476.67 319.87 470.52" fill="#85827b"/><polygon points="319.87 470.52 279.44 476.67 302.29 517.09 319.87 470.52" fill="#9d9995"/><polygon points="279.44 532.91 307.56 575.97 303.17 540.82 279.44 532.91" fill="#928f89"/><polygon points="302.29 517.09 279.44 532.91 303.17 540.82 302.29 517.09" fill="#a39b97"/><polygon points="279.44 476.67 279.44 532.91 302.29 517.09 279.44 476.67" fill="#a09e97"/><polygon points="311.96 365.95 273.29 375.62 313.72 434.49 311.96 365.95" fill="#f4ede7"/><polygon points="287.35 344.86 273.29 375.62 311.96 365.95 287.35 344.86" fill="#e9e4e0"/><polygon points="313.72 434.49 270.66 429.22 279.44 476.67 313.72 434.49" fill="#e3ddd9"/><polygon points="313.72 434.49 273.29 375.62 270.66 429.22 313.72 434.49" fill="#eee8e2"/><polygon points="315.47 732.38 333.05 686.69 268.9 679.66 315.47 732.38" fill="#969288"/><polygon points="268.9 679.66 293.5 737.65 315.47 732.38 268.9 679.66" fill="#cdc8c2"/><polygon points="268.9 679.66 333.05 686.69 322.5 637.48 268.9 679.66" fill="#8f8d83"/><polygon points="279.44 476.67 255.72 481.94 279.44 532.91 279.44 476.67" fill="#ccc8c3"/><polygon points="270.66 429.22 255.72 481.94 279.44 476.67 270.66 429.22" fill="#e6dfdc"/><polygon points="316.35 606.72 254.84 604.09 322.5 637.48 316.35 606.72" fill="#8a857c"/><polygon points="254.84 604.09 268.9 679.66 322.5 637.48 254.84 604.09" fill="#757571"/><polygon points="307.56 575.97 254.84 604.09 316.35 606.72 307.56 575.97" fill="#89877c"/><polygon points="279.44 532.91 252.2 555.76 307.56 575.97 279.44 532.91" fill="#94918b"/><polygon points="252.2 555.76 254.84 604.09 307.56 575.97 252.2 555.76" fill="#838078"/><polygon points="255.72 481.94 252.2 555.76 279.44 532.91 255.72 481.94" fill="#cac4be"/><polygon points="250.45 715.68 293.5 737.65 268.9 679.66 250.45 715.68" fill="#b5b0ad"/><polygon points="273.29 375.62 244.3 423.95 270.66 429.22 273.29 375.62" fill="#cecac9"/><polygon points="270.66 429.22 230.24 456.46 255.72 481.94 270.66 429.22" fill="#e9e0dd"/><polygon points="244.3 423.95 230.24 456.46 270.66 429.22 244.3 423.95" fill="#d5cfcd"/><polygon points="252.2 555.76 211.78 604.97 254.84 604.09 252.2 555.76" fill="#c6bfb9"/><polygon points="209.15 635.72 250.45 715.68 268.9 679.66 209.15 635.72" fill="#bfb7b4"/><polygon points="254.84 604.09 209.15 635.72 268.9 679.66 254.84 604.09" fill="#a9a59e"/><polygon points="211.78 604.97 209.15 635.72 254.84 604.09 211.78 604.97" fill="#b6b2ad"/><polygon points="255.72 481.94 204.75 514.46 252.2 555.76 255.72 481.94" fill="#ccc8c2"/><polygon points="230.24 456.46 204.75 514.46 255.72 481.94 230.24 456.46" fill="#d4cdcb"/><polygon points="204.75 514.46 203 539.06 252.2 555.76 204.75 514.46" fill="#cac7c2"/><polygon points="199.48 572.45 211.78 604.97 252.2 555.76 199.48 572.45" fill="#d6cfcc"/><polygon points="203 539.06 199.48 572.45 252.2 555.76 203 539.06" fill="#cec9c8"/><polygon points="698.96 178.01 698.96 177 699.84 177.9 698.96 178.01" fill="#fefbf7"/><polygon points="698.96 243.81 698.96 178.01 699.84 177.9 698.96 243.81" fill="#fefaf2"/><polygon points="698.96 627.52 698.96 621.14 702.48 623.42 698.96 627.52" fill="#444e58"/><polygon points="698.96 476.79 698.96 452.94 705.99 474.91 698.96 476.79" fill="#fbf2ed"/><polygon points="698.96 613.75 698.96 596.18 706.87 613.75 698.96 613.75" fill="#d0c8cc"/><polygon points="702.48 623.42 698.96 621.14 698.96 613.75 706.87 613.75 702.48 623.42" fill="#666d7b"/><polygon points="706.87 633.96 698.96 634.89 698.96 627.52 702.48 623.42 706.87 633.96" fill="#5d5c6a"/><polygon points="698.96 649.32 698.96 634.89 706.87 633.96 698.96 649.32" fill="#5d5c6a"/><polygon points="698.96 664.02 698.96 649.32 706.87 633.96 698.96 664.02" fill="#5d5c6a"/><polygon points="698.96 790.38 698.96 774.08 707.75 795.65 698.96 790.38" fill="#2c3337"/><polygon points="698.96 840.47 698.96 797.41 707.75 795.65 698.96 840.47" fill="#8a7b77"/><polygon points="698.96 797.41 698.96 790.38 707.75 795.65 698.96 797.41" fill="#8a7b77"/><polygon points="698.96 694 698.96 684.75 708.63 688.45 698.96 694" fill="#060d0f"/><polygon points="698.96 684.75 698.96 669.11 708.63 688.45 698.96 684.75" fill="#040508"/><polygon points="698.96 385.75 698.96 380.68 709.51 381.77 698.96 385.75" fill="#f3e6db"/><polygon points="698.96 427.46 698.96 385.75 709.51 381.77 698.96 427.46" fill="#f4e7dd"/><polygon points="698.96 380.68 698.96 372.1 709.51 381.77 698.96 380.68" fill="#f4e7dd"/><polygon points="698.96 738.28 698.96 728.21 711.26 737.65 698.96 738.28" fill="#040404"/><polygon points="711.26 737.65 698.96 728.21 698.96 694 708.63 688.45 711.26 737.65" fill="#04070a"/><polygon points="698.96 754.22 698.96 738.28 711.26 737.65 698.96 754.22" fill="#0f171e"/><polygon points="698.96 769.64 698.96 754.22 711.26 737.65 698.96 769.64" fill="#0e151c"/><polygon points="698.96 910.06 698.96 900.22 711.26 900.22 698.96 910.06" fill="#86766d"/><polygon points="698.96 900.22 698.96 840.47 711.26 900.22 698.96 900.22" fill="#86766d"/><polygon points="706.87 613.75 698.96 596.18 713.02 598.81 706.87 613.75" fill="#f5edea"/><polygon points="698.96 275.88 698.96 243.81 713.9 278.08 698.96 275.88" fill="#fefdfa"/><polygon points="698.96 304.13 698.96 275.88 713.9 278.08 698.96 304.13" fill="#fefdfa"/><polygon points="706.87 613.75 713.02 598.81 717.41 609.36 706.87 613.75" fill="#cdc6cc"/><polygon points="698.96 372.1 698.96 342.15 720.05 340.47 698.96 372.1" fill="#f3ede7"/><polygon points="720.05 340.47 698.96 342.15 698.96 304.13 713.9 278.08 720.05 340.47" fill="#f3ede7"/><polygon points="709.51 381.77 698.96 372.1 720.05 340.47 709.51 381.77" fill="#f4e7dd"/><polygon points="720.05 836.07 698.96 840.47 707.75 795.65 720.05 836.07" fill="#8e7d76"/><polygon points="720.93 676.14 698.96 667.69 698.96 664.02 706.87 633.96 720.93 676.14" fill="#3d3f4d"/><polygon points="708.63 688.45 698.96 669.11 698.96 667.69 720.93 676.14 708.63 688.45" fill="#141b26"/><polygon points="698.96 452.94 698.96 427.46 721.81 442.4 698.96 452.94" fill="#dbc8c4"/><polygon points="705.99 474.91 698.96 452.94 721.81 442.4 705.99 474.91" fill="#dfd2d0"/><polygon points="698.96 520.17 698.96 483.65 721.81 503.03 698.96 520.17" fill="#fdfaf7"/><polygon points="721.81 503.03 698.96 483.65 698.96 476.79 705.99 474.91 721.81 503.03" fill="#fefefd"/><polygon points="698.96 546.65 698.96 524.27 722.69 561.91 698.96 546.65" fill="#fefcfa"/><polygon points="722.69 561.91 698.96 524.27 698.96 520.17 721.81 503.03 722.69 561.91" fill="#fefefd"/><polygon points="698.96 596.18 698.96 546.65 722.69 561.91 698.96 596.18" fill="#fefcfa"/><polygon points="713.02 598.81 698.96 596.18 722.69 561.91 713.02 598.81" fill="#f5ebe7"/><polygon points="723.57 623.42 706.87 613.75 717.41 609.36 723.57 623.42" fill="#92949c"/><polygon points="702.48 623.42 706.87 613.75 723.57 623.42 702.48 623.42" fill="#666d7b"/><polygon points="706.87 633.96 702.48 623.42 723.57 623.42 706.87 633.96" fill="#444e58"/><polygon points="725.32 902.86 698.96 910.51 698.96 910.06 711.26 900.22 725.32 902.86" fill="#786b65"/><polygon points="727.08 227.11 698.96 243.81 699.84 177.9 727.08 227.11" fill="#fefcf5"/><polygon points="713.9 278.08 698.96 243.81 727.08 227.11 713.9 278.08" fill="#fefbf4"/><polygon points="727.08 394.07 698.96 427.46 709.51 381.77 727.08 394.07" fill="#eaded1"/><polygon points="717.41 609.36 713.02 598.81 727.08 596.18 717.41 609.36" fill="#e7dddd"/><polygon points="713.02 598.81 722.69 561.91 727.08 596.18 713.02 598.81" fill="#e7e0e0"/><polygon points="711.26 737.65 708.63 688.45 727.08 717.44 711.26 737.65" fill="#070e12"/><polygon points="707.75 795.65 698.96 774.08 698.96 772.36 731.47 788.62 707.75 795.65" fill="#3e414a"/><polygon points="705.99 474.91 721.81 442.4 736.75 483.7 705.99 474.91" fill="#f9efe8"/><polygon points="721.81 503.03 705.99 474.91 736.75 483.7 721.81 503.03" fill="#f9eee8"/><polygon points="736.75 736.77 711.26 737.65 727.08 717.44 736.75 736.77" fill="#040404"/><polygon points="709.51 381.77 720.05 340.47 737.63 343.98 709.51 381.77" fill="#eaded1"/><polygon points="727.08 394.07 709.51 381.77 737.63 343.98 727.08 394.07" fill="#e4d6ca"/><polygon points="720.05 340.47 713.9 278.08 737.63 343.98 720.05 340.47" fill="#faf4ed"/><polygon points="721.81 442.4 738.5 430.98 736.75 483.7 721.81 442.4" fill="#faeee8"/><polygon points="721.81 442.4 698.96 427.46 738.5 430.98 721.81 442.4" fill="#e8dbd4"/><polygon points="738.5 430.98 698.96 427.46 727.08 394.07 738.5 430.98" fill="#e0d3cd"/><polygon points="723.57 623.42 717.41 609.36 738.5 620.78 723.57 623.42" fill="#90939a"/><polygon points="717.41 609.36 727.08 596.18 738.5 620.78 717.41 609.36" fill="#e5dbdf"/><polygon points="738.5 656.81 723.57 623.42 738.5 620.78 738.5 656.81" fill="#50525e"/><polygon points="720.93 676.14 706.87 633.96 738.5 656.81 720.93 676.14" fill="#444655"/><polygon points="738.5 656.81 706.87 633.96 723.57 623.42 738.5 656.81" fill="#5d606a"/><polygon points="739.38 771.05 711.26 737.65 736.75 736.77 739.38 771.05" fill="#26333b"/><polygon points="739.38 771.05 698.96 771.91 698.96 769.64 711.26 737.65 739.38 771.05" fill="#2e3842"/><polygon points="731.47 788.62 698.96 772.36 698.96 771.91 739.38 771.05 731.47 788.62" fill="#3e414a"/><polygon points="720.05 836.07 707.75 795.65 739.38 805.32 720.05 836.07" fill="#91817d"/><polygon points="707.75 795.65 731.47 788.62 739.38 805.32 707.75 795.65" fill="#8b7b78"/><polygon points="739.38 864.19 725.32 902.86 711.26 900.22 739.38 864.19" fill="#8b7774"/><polygon points="711.26 900.22 698.96 840.47 739.38 864.19 711.26 900.22" fill="#8e7d76"/><polygon points="739.38 864.19 698.96 840.47 720.05 836.07 739.38 864.19" fill="#8e7d76"/><polygon points="708.63 688.45 720.93 676.14 747.29 698.99 708.63 688.45" fill="#040404"/><polygon points="727.08 717.44 708.63 688.45 747.29 698.99 727.08 717.44" fill="#142029"/><polygon points="748.17 488.97 721.81 503.03 736.75 483.7 748.17 488.97" fill="#fdf7f5"/><polygon points="749.05 812.35 720.05 836.07 739.38 805.32 749.05 812.35" fill="#8c7b75"/><polygon points="739.38 864.19 720.05 836.07 749.05 812.35 739.38 864.19" fill="#8c7b75"/><polygon points="749.93 668.23 720.93 676.14 738.5 656.81 749.93 668.23" fill="#0a0e11"/><polygon points="747.29 698.99 720.93 676.14 750.81 681.41 747.29 698.99" fill="#040404"/><polygon points="750.81 681.41 720.93 676.14 749.93 668.23 750.81 681.41" fill="#040404"/><polygon points="739.38 805.32 750.81 783.35 749.05 812.35 739.38 805.32" fill="#77655d"/><polygon points="731.47 788.62 739.38 771.05 750.81 783.35 731.47 788.62" fill="#3b3e42"/><polygon points="739.38 805.32 731.47 788.62 750.81 783.35 739.38 805.32" fill="#8b7973"/><polygon points="738.5 430.98 727.08 394.07 752.56 406.37 738.5 430.98" fill="#d2c5c0"/><polygon points="722.69 561.91 721.81 503.03 756.96 519.73 722.69 561.91" fill="#fef3ec"/><polygon points="756.96 519.73 721.81 503.03 748.17 488.97 756.96 519.73" fill="#fef7f3"/><polygon points="756.96 864.19 739.38 864.19 749.05 812.35 756.96 864.19" fill="#84706a"/><polygon points="756.96 864.19 725.32 902.86 739.38 864.19 756.96 864.19" fill="#7a6e66"/><polygon points="699.84 177.9 758.72 168.23 727.08 227.11 699.84 177.9" fill="#fbf6f2"/><polygon points="713.9 278.08 727.08 227.11 760.47 271.05 713.9 278.08" fill="#faf4ed"/><polygon points="750.81 681.41 749.93 668.23 760.47 662.96 750.81 681.41" fill="#0f151c"/><polygon points="749.93 668.23 738.5 656.81 760.47 662.96 749.93 668.23" fill="#181d24"/><polygon points="763.11 365.07 727.08 394.07 737.63 343.98 763.11 365.07" fill="#ebdfd3"/><polygon points="752.56 406.37 727.08 394.07 763.11 365.07 752.56 406.37" fill="#f4ece3"/><polygon points="763.99 136.6 758.72 168.23 699.84 177.9 763.99 136.6" fill="#fcf9f4"/><polygon points="736.75 736.77 727.08 717.44 763.99 714.81 736.75 736.77" fill="#06080b"/><polygon points="727.08 717.44 747.29 698.99 763.99 714.81 727.08 717.44" fill="#090e14"/><polygon points="736.75 483.7 738.5 430.98 767.5 476.67 736.75 483.7" fill="#fcf2ef"/><polygon points="736.75 483.7 767.5 476.67 748.17 488.97 736.75 483.7" fill="#faefee"/><polygon points="760.47 662.96 738.5 656.81 768.38 640.99 760.47 662.96" fill="#35404c"/><polygon points="760.47 662.96 768.38 640.99 768.38 656.81 760.47 662.96" fill="#1b232c"/><polygon points="768.38 640.99 738.5 656.81 738.5 620.78 768.38 640.99" fill="#333e4a"/><polygon points="752.56 406.37 763.11 365.07 771.02 370.34 752.56 406.37" fill="#f1eae2"/><polygon points="750.81 783.35 739.38 771.05 773.65 741.17 750.81 783.35" fill="#363942"/><polygon points="773.65 741.17 739.38 771.05 736.75 736.77 773.65 741.17" fill="#2f3741"/><polygon points="773.65 741.17 736.75 736.77 763.99 714.81 773.65 741.17" fill="#3f4b54"/><polygon points="773.65 820.25 756.96 864.19 749.05 812.35 773.65 820.25" fill="#77655d"/><polygon points="749.05 812.35 750.81 783.35 773.65 820.25 749.05 812.35" fill="#756664"/><polygon points="774.53 532.91 722.69 561.91 756.96 519.73 774.53 532.91" fill="#eee1df"/><polygon points="774.53 532.91 756.96 519.73 774.53 504.79 774.53 532.91" fill="#dccdd0"/><polygon points="756.96 519.73 748.17 488.97 774.53 504.79 756.96 519.73" fill="#faefee"/><polygon points="748.17 488.97 767.5 476.67 774.53 504.79 748.17 488.97" fill="#ded3cf"/><polygon points="747.29 698.99 750.81 681.41 774.53 691.96 747.29 698.99" fill="#040404"/><polygon points="763.99 714.81 747.29 698.99 774.53 691.96 763.99 714.81" fill="#0e141e"/><polygon points="776.29 674.38 750.81 681.41 760.47 662.96 776.29 674.38" fill="#181d24"/><polygon points="774.53 691.96 750.81 681.41 776.29 674.38 774.53 691.96" fill="#1a2329"/><polygon points="776.29 674.38 760.47 662.96 768.38 656.81 776.29 674.38" fill="#28333c"/><polygon points="737.63 343.98 778.93 312.35 763.11 365.07 737.63 343.98" fill="#f8efe6"/><polygon points="737.63 343.98 713.9 278.08 778.93 312.35 737.63 343.98" fill="#f3ede6"/><polygon points="778.93 312.35 713.9 278.08 760.47 271.05 778.93 312.35" fill="#fff9f1"/><polygon points="783.32 878.25 725.32 902.86 756.96 864.19 783.32 878.25" fill="#786b65"/><polygon points="767.5 476.67 738.5 430.98 783.32 457.34 767.5 476.67" fill="#b6a4a6"/><polygon points="785.08 436.25 738.5 430.98 752.56 406.37 785.08 436.25" fill="#d2c3be"/><polygon points="783.32 457.34 738.5 430.98 785.08 436.25 783.32 457.34" fill="#c2b2ae"/><polygon points="774.53 504.79 767.5 476.67 785.96 488.09 774.53 504.79" fill="#dacacb"/><polygon points="767.5 476.67 783.32 457.34 785.96 488.09 767.5 476.67" fill="#b7a3a4"/><polygon points="750.81 783.35 773.65 741.17 785.96 753.47 750.81 783.35" fill="#6e6666"/><polygon points="787.71 400.22 752.56 406.37 771.02 370.34 787.71 400.22" fill="#e0d3cd"/><polygon points="785.08 436.25 752.56 406.37 787.71 400.22 785.08 436.25" fill="#d5c9c2"/><polygon points="727.08 227.11 758.72 168.23 788.59 224.47 727.08 227.11" fill="#f0eae6"/><polygon points="760.47 271.05 727.08 227.11 788.59 224.47 760.47 271.05" fill="#f5ede3"/><polygon points="788.59 517.97 774.53 532.91 774.53 504.79 788.59 517.97" fill="#d1bcc0"/><polygon points="787.71 540.82 774.53 532.91 788.59 517.97 787.71 540.82" fill="#745b65"/><polygon points="774.53 504.79 785.96 488.09 788.59 508.3 774.53 504.79" fill="#684e58"/><polygon points="788.59 517.97 774.53 504.79 788.59 508.3 788.59 517.97" fill="#dbcccf"/><polygon points="784.2 156.81 792.11 188.44 758.72 168.23 784.2 156.81" fill="#fefaf5"/><polygon points="758.72 168.23 792.11 188.44 788.59 224.47 758.72 168.23" fill="#fdfaf8"/><polygon points="792.11 913.4 725.32 902.86 783.32 878.25 792.11 913.4" fill="#746461"/><polygon points="771.02 370.34 796.5 355.4 787.71 400.22 771.02 370.34" fill="#e0d3cd"/><polygon points="771.02 370.34 763.11 365.07 796.5 355.4 771.02 370.34" fill="#f8efe9"/><polygon points="763.11 365.07 778.93 312.35 796.5 355.4 763.11 365.07" fill="#f4ede7"/><polygon points="774.53 691.96 776.29 674.38 796.5 670.87 774.53 691.96" fill="#c0b6b5"/><polygon points="768.38 656.81 768.38 640.99 796.5 670.87 768.38 656.81" fill="#97969c"/><polygon points="796.5 670.87 776.29 674.38 768.38 656.81 796.5 670.87" fill="#c1b6ba"/><polygon points="792.99 545.21 797.38 565.42 787.71 540.82 792.99 545.21" fill="#bfa8ad"/><polygon points="797.38 565.42 722.69 561.91 774.53 532.91 797.38 565.42" fill="#deccce"/><polygon points="797.38 565.42 774.53 532.91 787.71 540.82 797.38 565.42" fill="#dac7c8"/><polygon points="727.08 596.18 722.69 561.91 797.38 565.42 727.08 596.18" fill="#f5ebe8"/><polygon points="788.59 508.3 785.96 488.09 799.14 485.46 788.59 508.3" fill="#684e58"/><polygon points="785.96 488.09 783.32 457.34 802.65 462.61 785.96 488.09" fill="#b49e9e"/><polygon points="785.96 488.09 802.65 462.61 799.14 485.46 785.96 488.09" fill="#ae989a"/><polygon points="783.32 457.34 785.08 436.25 803.53 437.13 783.32 457.34" fill="#c9b0b0"/><polygon points="802.65 462.61 783.32 457.34 803.53 437.13 802.65 462.61" fill="#c2a9a9"/><polygon points="805.29 706.9 774.53 691.96 796.5 670.87 805.29 706.9" fill="#c0b6b5"/><polygon points="785.96 753.47 773.65 741.17 805.29 706.9 785.96 753.47" fill="#908a8a"/><polygon points="805.29 706.9 773.65 741.17 763.99 714.81 805.29 706.9" fill="#908a8a"/><polygon points="763.99 714.81 774.53 691.96 805.29 706.9 763.99 714.81" fill="#868588"/><polygon points="738.5 620.78 727.08 596.18 806.17 597.06 738.5 620.78" fill="#f6ece9"/><polygon points="727.08 596.18 797.38 565.42 806.17 597.06 727.08 596.18" fill="#eadfdd"/><polygon points="738.5 620.78 806.17 597.06 768.38 640.99 738.5 620.78" fill="#eae1df"/><polygon points="806.17 856.28 756.96 864.19 773.65 820.25 806.17 856.28" fill="#6b5c57"/><polygon points="783.32 878.25 756.96 864.19 806.17 856.28 783.32 878.25" fill="#6b5c57"/><polygon points="773.65 820.25 750.81 783.35 807.04 771.05 773.65 820.25" fill="#5f5654"/><polygon points="807.04 771.05 750.81 783.35 785.96 753.47 807.04 771.05" fill="#6d5e5d"/><polygon points="809.68 409.89 785.08 436.25 787.71 400.22 809.68 409.89" fill="#e7dcd6"/><polygon points="803.53 437.13 785.08 436.25 809.68 409.89 803.53 437.13" fill="#cabbb9"/><polygon points="788.59 508.3 799.14 485.46 809.68 499.52 788.59 508.3" fill="#885e6a"/><polygon points="810.56 513.58 788.59 517.97 788.59 508.3 810.56 513.58" fill="#695060"/><polygon points="810.56 513.58 788.59 508.3 809.68 499.52 810.56 513.58" fill="#100a11"/><polygon points="788.59 224.47 792.11 188.44 811.44 192.84 788.59 224.47" fill="#fcf7f4"/><polygon points="811.44 565.42 797.38 565.42 792.99 545.21 811.44 565.42" fill="#a38491"/><polygon points="778.93 312.35 760.47 271.05 812.32 285.98 778.93 312.35" fill="#f6efe9"/><polygon points="760.47 271.05 788.59 224.47 812.32 285.98 760.47 271.05" fill="#f5ede6"/><polygon points="812.32 521.49 788.59 517.97 810.56 513.58 812.32 521.49" fill="#916778"/><polygon points="787.71 540.82 788.59 517.97 812.32 521.49 787.71 540.82" fill="#866475"/><polygon points="792.99 545.21 787.71 540.82 812.32 521.49 792.99 545.21" fill="#9e7788"/><polygon points="802.65 462.61 803.53 437.13 814.08 454.7 802.65 462.61" fill="#8c7178"/><polygon points="809.68 499.52 799.14 485.46 815.83 493.37 809.68 499.52" fill="#23212b"/><polygon points="817.59 505.67 810.56 513.58 809.68 499.52 817.59 505.67" fill="#555465"/><polygon points="809.68 499.52 815.83 493.37 817.59 505.67 809.68 499.52" fill="#555465"/><polygon points="814.08 454.7 803.53 437.13 817.59 446.79 814.08 454.7" fill="#ccbcb9"/><polygon points="803.53 437.13 809.68 409.89 818.47 438.88 803.53 437.13" fill="#cebebb"/><polygon points="817.59 446.79 803.53 437.13 818.47 438.88 817.59 446.79" fill="#cebebb"/><polygon points="819.35 475.79 802.65 462.61 814.08 454.7 819.35 475.79" fill="#393138"/><polygon points="799.14 485.46 802.65 462.61 819.35 475.79 799.14 485.46" fill="#3a333c"/><polygon points="799.14 485.46 819.35 475.79 815.83 493.37 799.14 485.46" fill="#3a333c"/><polygon points="806.17 597.06 797.38 565.42 819.35 577.72 806.17 597.06" fill="#e7dcdb"/><polygon points="819.35 577.72 797.38 565.42 811.44 565.42 819.35 577.72" fill="#ae97a1"/><polygon points="819.35 577.72 811.44 565.42 820.23 554.88 819.35 577.72" fill="#9f8990"/><polygon points="811.44 565.42 792.99 545.21 820.23 554.88 811.44 565.42" fill="#ae97a1"/><polygon points="792.11 188.44 821.11 164.72 811.44 192.84 792.11 188.44" fill="#fcf9f4"/><polygon points="821.11 525 792.99 545.21 812.32 521.49 821.11 525" fill="#9b7685"/><polygon points="820.23 554.88 792.99 545.21 821.11 525 820.23 554.88" fill="#52404d"/><polygon points="812.32 521.49 810.56 513.58 821.11 525 812.32 521.49" fill="#2a212b"/><polygon points="821.11 525 810.56 513.58 817.59 505.67 821.11 525" fill="#0e1421"/><polygon points="796.5 670.87 768.38 640.99 821.11 641.87 796.5 670.87" fill="#cec2bd"/><polygon points="768.38 640.99 806.17 597.06 821.11 641.87 768.38 640.99" fill="#eae1df"/><polygon points="821.98 776.32 773.65 820.25 807.04 771.05 821.98 776.32" fill="#736665"/><polygon points="787.71 400.22 796.5 355.4 822.86 358.92 787.71 400.22" fill="#efe6de"/><polygon points="809.68 409.89 787.71 400.22 822.86 358.92 809.68 409.89" fill="#e7dcd6"/><polygon points="814.08 454.7 817.59 446.79 825.5 446.79 814.08 454.7" fill="#5d505a"/><polygon points="817.59 446.79 818.47 438.88 825.5 446.79 817.59 446.79" fill="#977e85"/><polygon points="827.26 887.92 792.11 913.4 783.32 878.25 827.26 887.92" fill="#806a65"/><polygon points="806.17 856.28 827.26 887.92 783.32 878.25 806.17 856.28" fill="#836c66"/><polygon points="828.13 837.83 806.17 856.28 773.65 820.25 828.13 837.83" fill="#806d68"/><polygon points="828.13 837.83 773.65 820.25 821.98 776.32 828.13 837.83" fill="#907873"/><polygon points="811.44 192.84 821.11 164.72 829.01 198.99 811.44 192.84" fill="#f8f3ef"/><polygon points="811.44 192.84 829.01 198.99 788.59 224.47 811.44 192.84" fill="#f3eee7"/><polygon points="831.65 330.8 778.93 312.35 812.32 285.98 831.65 330.8" fill="#fefbf7"/><polygon points="796.5 355.4 778.93 312.35 831.65 330.8 796.5 355.4" fill="#f9f3ed"/><polygon points="796.5 355.4 831.65 330.8 822.86 358.92 796.5 355.4" fill="#efe6de"/><polygon points="821.11 641.87 806.17 597.06 831.65 626.93 821.11 641.87" fill="#e1d0cb"/><polygon points="831.65 684.93 805.29 706.9 796.5 670.87 831.65 684.93" fill="#c9bab5"/><polygon points="796.5 670.87 821.11 641.87 831.65 684.93 796.5 670.87" fill="#d8c6bf"/><polygon points="821.98 776.32 807.04 771.05 831.65 752.59 821.98 776.32" fill="#866e68"/><polygon points="785.96 753.47 805.29 706.9 831.65 752.59 785.96 753.47" fill="#a3938e"/><polygon points="807.04 771.05 785.96 753.47 831.65 752.59 807.04 771.05" fill="#927e7b"/><polygon points="819.35 475.79 814.08 454.7 832.53 457.34 819.35 475.79" fill="#4e4250"/><polygon points="832.53 457.34 814.08 454.7 825.5 446.79 832.53 457.34" fill="#4f4351"/><polygon points="820.23 554.88 821.11 525 834.29 541.7 820.23 554.88" fill="#9f7c88"/><polygon points="836.04 507.43 821.11 525 817.59 505.67 836.04 507.43" fill="#212b37"/><polygon points="817.59 505.67 815.83 493.37 836.04 507.43 817.59 505.67" fill="#090c0d"/><polygon points="815.83 493.37 819.35 475.79 838.68 479.31 815.83 493.37" fill="#04060a"/><polygon points="838.68 479.31 819.35 475.79 832.53 457.34 838.68 479.31" fill="#090d0e"/><polygon points="806.17 597.06 819.35 577.72 838.68 588.27 806.17 597.06" fill="#e7dcdb"/><polygon points="831.65 626.93 806.17 597.06 838.68 588.27 831.65 626.93" fill="#ede2db"/><polygon points="834.29 541.7 821.11 525 840.44 531.15 834.29 541.7" fill="#463e4b"/><polygon points="836.04 507.43 815.83 493.37 840.44 489.85 836.04 507.43" fill="#071117"/><polygon points="815.83 493.37 838.68 479.31 840.44 489.85 815.83 493.37" fill="#071117"/><polygon points="825.5 446.79 841.32 437.13 832.53 457.34 825.5 446.79" fill="#73636a"/><polygon points="825.5 446.79 818.47 438.88 841.32 437.13 825.5 446.79" fill="#ab9c9d"/><polygon points="842.2 517.97 821.11 525 836.04 507.43 842.2 517.97" fill="#172029"/><polygon points="840.44 531.15 821.11 525 842.2 517.97 840.44 531.15" fill="#101720"/><polygon points="838.68 890.55 827.26 887.92 842.2 847.5 838.68 890.55" fill="#8a7a74"/><polygon points="842.2 847.5 827.26 887.92 806.17 856.28 842.2 847.5" fill="#8f857a"/><polygon points="842.2 847.5 806.17 856.28 828.13 837.83 842.2 847.5" fill="#89766d"/><polygon points="843.95 406.37 809.68 409.89 822.86 358.92 843.95 406.37" fill="#dfd5d0"/><polygon points="818.47 438.88 844.83 424.82 841.32 437.13 818.47 438.88" fill="#aa9b9c"/><polygon points="818.47 438.88 809.68 409.89 844.83 424.82 818.47 438.88" fill="#dfd5d0"/><polygon points="844.83 424.82 809.68 409.89 843.95 406.37 844.83 424.82" fill="#e7ddd8"/><polygon points="838.68 479.31 832.53 457.34 844.83 477.55 838.68 479.31" fill="#202f3b"/><polygon points="846.59 483.7 838.68 479.31 844.83 477.55 846.59 483.7" fill="#fff"/><polygon points="840.44 489.85 838.68 479.31 846.59 483.7 840.44 489.85" fill="#bfbfbf"/><polygon points="840.44 489.85 846.59 483.7 846.59 487.21 840.44 489.85" fill="#05080d"/><polygon points="840.44 531.15 842.2 517.97 850.1 539.06 840.44 531.15" fill="#040405"/><polygon points="834.29 541.7 840.44 531.15 850.1 539.06 834.29 541.7" fill="#1f1f25"/><polygon points="832.53 457.34 841.32 437.13 850.1 450.31 832.53 457.34" fill="#938385"/><polygon points="850.98 756.99 821.98 776.32 831.65 752.59 850.98 756.99" fill="#896f68"/><polygon points="838.68 588.27 819.35 577.72 851.86 580.36 838.68 588.27" fill="#77696f"/><polygon points="841.32 437.13 844.83 424.82 852.74 434.49 841.32 437.13" fill="#e4dcd9"/><polygon points="841.32 437.13 852.74 434.49 850.1 450.31 841.32 437.13" fill="#938385"/><polygon points="844.83 477.55 832.53 457.34 853.62 461.73 844.83 477.55" fill="#05070a"/><polygon points="853.62 461.73 832.53 457.34 850.1 450.31 853.62 461.73" fill="#655d66"/><polygon points="853.62 823.77 842.2 847.5 828.13 837.83 853.62 823.77" fill="#7a6763"/><polygon points="853.62 823.77 828.13 837.83 821.98 776.32 853.62 823.77" fill="#76625c"/><polygon points="850.98 756.99 853.62 823.77 821.98 776.32 850.98 756.99" fill="#896f68"/><polygon points="856.25 564.54 819.35 577.72 820.23 554.88 856.25 564.54" fill="#6f6066"/><polygon points="851.86 580.36 819.35 577.72 856.25 564.54 851.86 580.36" fill="#cabcba"/><polygon points="856.25 564.54 820.23 554.88 834.29 541.7 856.25 564.54" fill="#75656b"/><polygon points="850.1 539.06 856.25 564.54 834.29 541.7 850.1 539.06" fill="#5e5256"/><polygon points="831.65 626.93 856.25 643.63 821.11 641.87 831.65 626.93" fill="#e1d0cb"/><polygon points="821.11 641.87 856.25 643.63 831.65 684.93 821.11 641.87" fill="#d5c5bc"/><polygon points="859.77 893.19 838.68 890.55 842.2 847.5 859.77 893.19" fill="#948e83"/><polygon points="842.2 517.97 836.04 507.43 861.53 501.27 842.2 517.97" fill="#040505"/><polygon points="861.53 501.27 836.04 507.43 840.44 489.85 861.53 501.27" fill="#040707"/><polygon points="861.53 501.27 840.44 489.85 846.59 487.21 861.53 501.27" fill="#040707"/><polygon points="829.01 198.99 843.95 200.75 862.41 258.74 829.01 198.99" fill="#f6f2ee"/><polygon points="788.59 224.47 862.41 258.74 812.32 285.98 788.59 224.47" fill="#fbf6f2"/><polygon points="829.01 198.99 862.41 258.74 788.59 224.47 829.01 198.99" fill="#fbf6f2"/><polygon points="850.1 450.31 852.74 434.49 862.41 446.79 850.1 450.31" fill="#a89a9a"/><polygon points="850.1 450.31 862.41 446.79 853.62 461.73 850.1 450.31" fill="#726e79"/><polygon points="863.28 722.72 850.98 756.99 831.65 752.59 863.28 722.72" fill="#b49c97"/><polygon points="863.28 722.72 805.29 706.9 831.65 684.93 863.28 722.72" fill="#ccb7b0"/><polygon points="831.65 752.59 805.29 706.9 863.28 722.72 831.65 752.59" fill="#b49c97"/><polygon points="862.41 258.74 843.95 200.75 865.04 217.44 862.41 258.74" fill="#fcf9f6"/><polygon points="843.95 200.75 864.16 177.02 865.04 217.44 843.95 200.75" fill="#f6f2ee"/><polygon points="812.32 285.98 862.41 258.74 865.92 300.04 812.32 285.98" fill="#fdf8f3"/><polygon points="812.32 285.98 865.92 300.04 831.65 330.8 812.32 285.98" fill="#fdf8f3"/><polygon points="831.65 330.8 865.92 300.04 864.16 328.16 831.65 330.8" fill="#f3ebe3"/><polygon points="865.92 553.12 856.25 564.54 850.1 539.06 865.92 553.12" fill="#756669"/><polygon points="862.41 446.79 852.74 434.49 865.92 437.13 862.41 446.79" fill="#a19393"/><polygon points="853.62 461.73 862.41 446.79 867.68 460.85 853.62 461.73" fill="#636370"/><polygon points="867.68 554 856.25 564.54 865.92 553.12 867.68 554" fill="#8d8283"/><polygon points="869.43 535.54 867.68 554 865.92 553.12 869.43 535.54" fill="#504951"/><polygon points="865.92 553.12 850.1 539.06 869.43 535.54 865.92 553.12" fill="#504951"/><polygon points="850.1 539.06 842.2 517.97 869.43 535.54 850.1 539.06" fill="#080b14"/><polygon points="869.43 535.54 842.2 517.97 861.53 501.27 869.43 535.54" fill="#0d1119"/><polygon points="869.43 839.59 842.2 847.5 853.62 823.77 869.43 839.59" fill="#948c82"/><polygon points="872.07 464.37 853.62 461.73 867.68 460.85 872.07 464.37" fill="#040405"/><polygon points="822.86 358.92 872.95 353.65 843.95 406.37 822.86 358.92" fill="#e7ddd8"/><polygon points="822.86 358.92 831.65 330.8 872.95 353.65 822.86 358.92" fill="#efe6e1"/><polygon points="872.95 353.65 831.65 330.8 864.16 328.16 872.95 353.65" fill="#efe6e1"/><polygon points="843.95 406.37 872.95 353.65 872.95 413.4 843.95 406.37" fill="#e4dbd3"/><polygon points="852.74 434.49 844.83 424.82 872.95 413.4 852.74 434.49" fill="#cabdba"/><polygon points="852.74 434.49 872.95 413.4 865.92 437.13 852.74 434.49" fill="#c7bdb9"/><polygon points="844.83 424.82 843.95 406.37 872.95 413.4 844.83 424.82" fill="#e3d8d2"/><polygon points="844.83 477.55 853.62 461.73 872.95 481.94 844.83 477.55" fill="#091117"/><polygon points="872.95 481.94 853.62 461.73 872.07 464.37 872.95 481.94" fill="#040505"/><polygon points="846.59 483.7 844.83 477.55 872.95 481.94 846.59 483.7" fill="#081017"/><polygon points="846.59 487.21 846.59 483.7 872.95 481.94 846.59 487.21" fill="#060d14"/><polygon points="872.95 481.94 861.53 501.27 846.59 487.21 872.95 481.94" fill="#04070a"/><polygon points="876.47 496.88 861.53 501.27 872.95 481.94 876.47 496.88" fill="#0e141a"/><polygon points="865.92 437.13 872.95 413.4 878.22 423.07 865.92 437.13" fill="#c7bdb9"/><polygon points="868.56 894.07 859.77 893.19 878.22 877.37 868.56 894.07" fill="#9d978f"/><polygon points="878.22 877.37 859.77 893.19 842.2 847.5 878.22 877.37" fill="#978d82"/><polygon points="878.22 877.37 842.2 847.5 869.43 839.59 878.22 877.37" fill="#978d82"/><polygon points="856.25 564.54 880.86 599.69 851.86 580.36 856.25 564.54" fill="#b09f9f"/><polygon points="867.68 554 880.86 599.69 856.25 564.54 867.68 554" fill="#948d8a"/><polygon points="851.86 580.36 880.86 599.69 838.68 588.27 851.86 580.36" fill="#ab9c9b"/><polygon points="838.68 588.27 880.86 599.69 831.65 626.93 838.68 588.27" fill="#ebe0db"/><polygon points="880.86 599.69 856.25 643.63 831.65 626.93 880.86 599.69" fill="#ebdfd8"/><polygon points="872.95 413.4 872.95 353.65 881.74 409.89 872.95 413.4" fill="#e5ddd8"/><polygon points="872.95 413.4 881.74 409.89 878.22 423.07 872.95 413.4" fill="#c7bdb9"/><polygon points="856.25 643.63 881.74 682.29 831.65 684.93 856.25 643.63" fill="#d8c3bb"/><polygon points="881.74 682.29 863.28 722.72 831.65 684.93 881.74 682.29" fill="#d6beb5"/><polygon points="883.5 506.55 869.43 535.54 861.53 501.27 883.5 506.55" fill="#182024"/><polygon points="883.5 506.55 861.53 501.27 876.47 496.88 883.5 506.55" fill="#0e1317"/><polygon points="884.37 534.67 867.68 554 869.43 535.54 884.37 534.67" fill="#39373c"/><polygon points="884.37 534.67 869.43 535.54 883.5 506.55 884.37 534.67" fill="#303439"/><polygon points="863.28 722.72 887.89 752.59 850.98 756.99 863.28 722.72" fill="#b69b95"/><polygon points="887.89 887.92 868.56 894.07 878.22 877.37 887.89 887.92" fill="#aba093"/><polygon points="888.77 831.68 869.43 839.59 853.62 823.77 888.77 831.68" fill="#8a776d"/><polygon points="865.04 217.44 890.52 221.84 862.41 258.74 865.04 217.44" fill="#fefdfb"/><polygon points="872.95 481.94 890.52 481.94 876.47 496.88 872.95 481.94" fill="#1b2127"/><polygon points="876.47 496.88 890.52 481.94 883.5 506.55 876.47 496.88" fill="#1f252d"/><polygon points="872.07 464.37 890.52 481.94 872.95 481.94 872.07 464.37" fill="#060605"/><polygon points="892.28 465.25 890.52 481.94 872.07 464.37 892.28 465.25" fill="#989294"/><polygon points="878.22 423.07 893.16 450.31 865.92 437.13 878.22 423.07" fill="#c5beb9"/><polygon points="872.07 464.37 893.16 450.31 892.28 465.25 872.07 464.37" fill="#7c727d"/><polygon points="867.68 460.85 893.16 450.31 872.07 464.37 867.68 460.85" fill="#636370"/><polygon points="865.92 437.13 893.16 450.31 862.41 446.79 865.92 437.13" fill="#c5b8b6"/><polygon points="862.41 446.79 893.16 450.31 867.68 460.85 862.41 446.79" fill="#655d66"/><polygon points="893.16 514.46 884.37 534.67 883.5 506.55 893.16 514.46" fill="#16171a"/><polygon points="890.52 481.94 893.16 514.46 883.5 506.55 890.52 481.94" fill="#322b32"/><polygon points="881.74 409.89 872.95 353.65 896.68 380.01 881.74 409.89" fill="#e1d9d1"/><polygon points="897.55 793.89 888.77 831.68 853.62 823.77 897.55 793.89" fill="#978e85"/><polygon points="897.55 793.89 853.62 823.77 850.98 756.99 897.55 793.89" fill="#8a776d"/><polygon points="887.89 752.59 897.55 793.89 850.98 756.99 887.89 752.59" fill="#cfb7ae"/><polygon points="864.16 177.02 901.07 195.47 865.04 217.44 864.16 177.02" fill="#fdfaf8"/><polygon points="865.04 217.44 901.07 195.47 890.52 221.84 865.04 217.44" fill="#e7e5de"/><polygon points="901.95 865.95 887.89 887.92 878.22 877.37 901.95 865.95" fill="#96908a"/><polygon points="869.43 839.59 901.95 865.95 878.22 877.37 869.43 839.59" fill="#97918b"/><polygon points="888.77 831.68 901.95 865.95 869.43 839.59 888.77 831.68" fill="#97918b"/><polygon points="896.68 380.01 904.59 402.86 881.74 409.89 896.68 380.01" fill="#f3ebe4"/><polygon points="878.22 423.07 906.34 414.28 893.16 450.31 878.22 423.07" fill="#c8c2bb"/><polygon points="881.74 409.89 906.34 414.28 878.22 423.07 881.74 409.89" fill="#dfd7d1"/><polygon points="904.59 402.86 906.34 414.28 881.74 409.89 904.59 402.86" fill="#dfd7d1"/><polygon points="893.16 514.46 908.1 539.94 884.37 534.67 893.16 514.46" fill="#897e7c"/><polygon points="908.1 539.94 880.86 599.69 867.68 554 908.1 539.94" fill="#8f8684"/><polygon points="908.1 539.94 867.68 554 884.37 534.67 908.1 539.94" fill="#a19897"/><polygon points="908.98 836.07 901.95 865.95 888.77 831.68 908.98 836.07" fill="#b2a49b"/><polygon points="865.92 300.04 862.41 258.74 910.74 255.23 865.92 300.04" fill="#fefcfa"/><polygon points="862.41 258.74 890.52 221.84 910.74 255.23 862.41 258.74" fill="#fefdfb"/><polygon points="890.52 221.84 901.07 195.47 916.01 226.23 890.52 221.84" fill="#eeebe3"/><polygon points="890.52 221.84 916.01 226.23 910.74 255.23 890.52 221.84" fill="#fefdfb"/><polygon points="864.16 328.16 916.89 327.29 872.95 353.65 864.16 328.16" fill="#f0eae2"/><polygon points="864.16 328.16 865.92 300.04 916.89 327.29 864.16 328.16" fill="#f9f2ed"/><polygon points="872.95 353.65 916.89 327.29 896.68 380.01 872.95 353.65" fill="#f4ebe5"/><polygon points="865.92 300.04 910.74 255.23 920.4 305.32 865.92 300.04" fill="#f5ede3"/><polygon points="916.89 327.29 865.92 300.04 920.4 305.32 916.89 327.29" fill="#f9f3ee"/><polygon points="922.16 470.52 890.52 481.94 892.28 465.25 922.16 470.52" fill="#9d9089"/><polygon points="893.16 450.31 922.16 470.52 892.28 465.25 893.16 450.31" fill="#b9aeab"/><polygon points="893.16 450.31 906.34 414.28 922.16 470.52 893.16 450.31" fill="#c5beb9"/><polygon points="923.04 816.74 888.77 831.68 897.55 793.89 923.04 816.74" fill="#bbafa7"/><polygon points="908.98 836.07 888.77 831.68 923.04 816.74 908.98 836.07" fill="#baaea5"/><polygon points="927.43 524.12 908.1 539.94 893.16 514.46 927.43 524.12" fill="#8a8680"/><polygon points="881.74 682.29 929.19 742.05 863.28 722.72 881.74 682.29" fill="#dac6be"/><polygon points="929.19 742.05 887.89 752.59 863.28 722.72 929.19 742.05" fill="#d6c1b7"/><polygon points="932.7 492.49 927.43 524.12 893.16 514.46 932.7 492.49" fill="#9e9690"/><polygon points="890.52 481.94 932.7 492.49 893.16 514.46 890.52 481.94" fill="#7d7872"/><polygon points="922.16 470.52 932.7 492.49 890.52 481.94 922.16 470.52" fill="#a69891"/><polygon points="932.7 851.89 901.95 865.95 908.98 836.07 932.7 851.89" fill="#bcb3ae"/><polygon points="901.07 195.47 933.58 198.11 916.01 226.23 901.07 195.47" fill="#eeebe3"/><polygon points="923.04 184.93 933.58 198.11 901.07 195.47 923.04 184.93" fill="#ebe6e2"/><polygon points="920.4 305.32 910.74 255.23 934.46 283.35 920.4 305.32" fill="#fefdfa"/><polygon points="920.4 305.32 935.34 306.19 916.89 327.29 920.4 305.32" fill="#f9f3ee"/><polygon points="934.46 283.35 935.34 306.19 920.4 305.32 934.46 283.35" fill="#fdf7f1"/><polygon points="923.04 816.74 937.98 834.32 908.98 836.07 923.04 816.74" fill="#9f9894"/><polygon points="937.98 834.32 932.7 851.89 908.98 836.07 937.98 834.32" fill="#b1a8a1"/><polygon points="938.86 772.8 923.04 816.74 897.55 793.89 938.86 772.8" fill="#bcb3ae"/><polygon points="887.89 752.59 938.86 772.8 897.55 793.89 887.89 752.59" fill="#beb0a5"/><polygon points="929.19 742.05 938.86 772.8 887.89 752.59 929.19 742.05" fill="#d6c1b7"/><polygon points="916.01 226.23 933.58 198.11 939.73 237.65 916.01 226.23" fill="#f3ede7"/><polygon points="916.01 226.23 939.73 237.65 910.74 255.23 916.01 226.23" fill="#fefdfb"/><polygon points="940.61 572.45 880.86 599.69 908.1 539.94 940.61 572.45" fill="#c2b8b5"/><polygon points="927.43 524.12 940.61 572.45 908.1 539.94 927.43 524.12" fill="#8a8680"/><polygon points="940.61 816.74 937.98 834.32 923.04 816.74 940.61 816.74" fill="#bbb2ad"/><polygon points="938.86 772.8 940.61 816.74 923.04 816.74 938.86 772.8" fill="#bbb0a8"/><polygon points="916.89 327.29 935.34 306.19 945.01 343.98 916.89 327.29" fill="#f4ece6"/><polygon points="896.68 380.01 916.89 327.29 945.01 343.98 896.68 380.01" fill="#f8efe9"/><polygon points="945.88 172.63 933.58 198.11 923.04 184.93 945.88 172.63" fill="#eeebe3"/><polygon points="940.61 572.45 947.64 631.33 880.86 599.69 940.61 572.45" fill="#bab2aa"/><polygon points="880.86 599.69 947.64 631.33 856.25 643.63 880.86 599.69" fill="#bdb2ad"/><polygon points="856.25 643.63 947.64 631.33 881.74 682.29 856.25 643.63" fill="#ebded8"/><polygon points="934.46 283.35 948.52 270.17 935.34 306.19 934.46 283.35" fill="#fef9f5"/><polygon points="910.74 255.23 948.52 270.17 934.46 283.35 910.74 255.23" fill="#fefbf8"/><polygon points="910.74 255.23 939.73 237.65 948.52 270.17 910.74 255.23" fill="#f5ede3"/><polygon points="950.28 361.56 904.59 402.86 896.68 380.01 950.28 361.56" fill="#f6eee8"/><polygon points="896.68 380.01 945.01 343.98 950.28 361.56 896.68 380.01" fill="#f6eee8"/><polygon points="955.55 689.32 929.19 742.05 881.74 682.29 955.55 689.32" fill="#d6ccc6"/><polygon points="947.64 631.33 955.55 689.32 881.74 682.29 947.64 631.33" fill="#cfc7c2"/><polygon points="933.58 198.11 959.95 197.23 939.73 237.65 933.58 198.11" fill="#f3ede7"/><polygon points="960.82 786.86 940.61 816.74 938.86 772.8 960.82 786.86" fill="#d3c3bb"/><polygon points="935.34 306.19 967.85 319.38 945.01 343.98 935.34 306.19" fill="#f4ece7"/><polygon points="935.34 306.19 948.52 270.17 967.85 319.38 935.34 306.19" fill="#fdf7f1"/><polygon points="906.34 414.28 968.73 440.64 922.16 470.52 906.34 414.28" fill="#c1b7b2"/><polygon points="969.61 762.26 938.86 772.8 929.19 742.05 969.61 762.26" fill="#e3d3ca"/><polygon points="960.82 786.86 938.86 772.8 969.61 762.26 960.82 786.86" fill="#d6c1b7"/><polygon points="906.34 414.28 970.49 416.04 968.73 440.64 906.34 414.28" fill="#ece3dd"/><polygon points="904.59 402.86 970.49 416.04 906.34 414.28 904.59 402.86" fill="#f6eee8"/><polygon points="932.7 492.49 970.49 534.67 927.43 524.12 932.7 492.49" fill="#7d7872"/><polygon points="970.49 534.67 940.61 572.45 927.43 524.12 970.49 534.67" fill="#8a8680"/><polygon points="972.25 387.92 904.59 402.86 950.28 361.56 972.25 387.92" fill="#f9f0ec"/><polygon points="972.25 387.92 970.49 416.04 904.59 402.86 972.25 387.92" fill="#f8efeb"/><polygon points="955.55 689.32 972.25 747.32 929.19 742.05 955.55 689.32" fill="#cac4bc"/><polygon points="972.25 747.32 969.61 762.26 929.19 742.05 972.25 747.32" fill="#d0c7c0"/><polygon points="959.07 839.59 940.61 816.74 972.25 818.5 959.07 839.59" fill="#b4aca9"/><polygon points="972.25 818.5 940.61 816.74 960.82 786.86 972.25 818.5" fill="#bdb0a6"/><polygon points="973.13 463.49 932.7 492.49 922.16 470.52 973.13 463.49" fill="#bcb5ae"/><polygon points="968.73 440.64 973.13 463.49 922.16 470.52 968.73 440.64" fill="#c2b8b4"/><polygon points="973.13 607.6 947.64 631.33 940.61 572.45 973.13 607.6" fill="#92908a"/><polygon points="970.49 534.67 973.13 607.6 940.61 572.45 970.49 534.67" fill="#c0bbb6"/><polygon points="979.28 365.07 972.25 387.92 950.28 361.56 979.28 365.07" fill="#eee5df"/><polygon points="945.01 343.98 979.28 365.07 950.28 361.56 945.01 343.98" fill="#f1eae3"/><polygon points="945.01 343.98 967.85 319.38 979.28 365.07 945.01 343.98" fill="#f1ebe3"/><polygon points="939.73 237.65 959.95 197.23 986.31 232.38 939.73 237.65" fill="#f3ede7"/><polygon points="959.95 197.23 981.03 201.63 986.31 232.38 959.95 197.23" fill="#f9f0ec"/><polygon points="939.73 237.65 986.31 232.38 948.52 270.17 939.73 237.65" fill="#dfd9d1"/><polygon points="988.94 517.97 970.49 534.67 932.7 492.49 988.94 517.97" fill="#837f78"/><polygon points="973.13 463.49 988.94 517.97 932.7 492.49 973.13 463.49" fill="#a6a19a"/><polygon points="969.61 762.26 989.82 770.17 960.82 786.86 969.61 762.26" fill="#d3c3bb"/><polygon points="989.82 770.17 972.25 818.5 960.82 786.86 989.82 770.17" fill="#9f9894"/><polygon points="972.25 747.32 990.7 752.59 969.61 762.26 972.25 747.32" fill="#d6ccc6"/><polygon points="990.7 752.59 989.82 770.17 969.61 762.26 990.7 752.59" fill="#bcbab6"/><polygon points="993.34 704.26 972.25 747.32 955.55 689.32 993.34 704.26" fill="#bebcb8"/><polygon points="998.61 385.28 970.49 416.04 972.25 387.92 998.61 385.28" fill="#ebe3dd"/><polygon points="979.28 365.07 998.61 385.28 972.25 387.92 979.28 365.07" fill="#eae2db"/><polygon points="948.52 270.17 999.49 272.8 967.85 319.38 948.52 270.17" fill="#dfd6cf"/><polygon points="948.52 270.17 986.31 232.38 999.49 272.8 948.52 270.17" fill="#dfd9d1"/><polygon points="1003 361.56 998.61 385.28 979.28 365.07 1003 361.56" fill="#b1a9a1"/><polygon points="967.85 319.38 1003 361.56 979.28 365.07 967.85 319.38" fill="#e1dbd2"/><polygon points="973.13 607.6 1006.52 696.35 947.64 631.33 973.13 607.6" fill="#9d9891"/><polygon points="947.64 631.33 1006.52 696.35 955.55 689.32 947.64 631.33" fill="#9e9994"/><polygon points="1006.52 696.35 993.34 704.26 955.55 689.32 1006.52 696.35" fill="#b0aaa3"/><polygon points="1006.52 696.35 1009.15 720.96 993.34 704.26 1006.52 696.35" fill="#b9b5b1"/><polygon points="1009.15 720.96 990.7 752.59 972.25 747.32 1009.15 720.96" fill="#bcbab6"/><polygon points="993.34 704.26 1009.15 720.96 972.25 747.32 993.34 704.26" fill="#c3bfbb"/><polygon points="999.49 272.8 1016.18 337.83 967.85 319.38 999.49 272.8" fill="#dbd1cb"/><polygon points="967.85 319.38 1016.18 337.83 1003 361.56 967.85 319.38" fill="#beb6ad"/><polygon points="968.73 440.64 1017.06 448.55 973.13 463.49 968.73 440.64" fill="#c4bebb"/><polygon points="970.49 416.04 1017.06 448.55 968.73 440.64 970.49 416.04" fill="#d4cbc8"/><polygon points="1022.34 601.45 1006.52 696.35 973.13 607.6 1022.34 601.45" fill="#9d9a97"/><polygon points="1022.34 601.45 973.13 607.6 970.49 534.67 1022.34 601.45" fill="#c0bbb6"/><polygon points="988.94 517.97 1022.34 601.45 970.49 534.67 988.94 517.97" fill="#868682"/><polygon points="986.31 232.38 981.03 201.63 1024.97 252.59 986.31 232.38" fill="#f9f0ec"/><polygon points="986.31 232.38 1024.97 252.59 999.49 272.8 986.31 232.38" fill="#eee5dc"/><polygon points="1027.61 485.46 988.94 517.97 973.13 463.49 1027.61 485.46" fill="#8c8a82"/><polygon points="1017.06 448.55 1027.61 485.46 973.13 463.49 1017.06 448.55" fill="#c5c0bd"/><polygon points="998.61 385.28 1031.12 423.07 970.49 416.04 998.61 385.28" fill="#fef8f3"/><polygon points="970.49 416.04 1031.12 423.07 1017.06 448.55 970.49 416.04" fill="#bdb8b5"/><polygon points="1044.3 710.41 1009.15 720.96 1006.52 696.35 1044.3 710.41" fill="#bab5b0"/><polygon points="999.49 272.8 1047.82 299.17 1016.18 337.83 999.49 272.8" fill="#e6dbd3"/><polygon points="1024.97 252.59 1047.82 299.17 999.49 272.8 1024.97 252.59" fill="#eee5dc"/><polygon points="1016.18 337.83 1047.82 299.17 1050.45 311.47 1016.18 337.83" fill="#dbd1cb"/><polygon points="1016.18 337.83 1050.45 384.4 1003 361.56 1016.18 337.83" fill="#c0b6ae"/><polygon points="1003 361.56 1050.45 384.4 998.61 385.28 1003 361.56" fill="#b9b0a9"/><polygon points="1050.45 384.4 1031.12 423.07 998.61 385.28 1050.45 384.4" fill="#eae2dd"/><polygon points="1024.97 252.59 1051.33 253.47 1047.82 299.17 1024.97 252.59" fill="#fefcf9"/><polygon points="981.03 201.63 1051.33 253.47 1024.97 252.59 981.03 201.63" fill="#f9f0ec"/><polygon points="1053.97 581.24 1022.34 601.45 988.94 517.97 1053.97 581.24" fill="#878682"/><polygon points="1040.79 743.8 1044.3 710.41 1056.61 729.75 1040.79 743.8" fill="#a09f99"/><polygon points="1049.58 749.08 1040.79 743.8 1056.61 729.75 1049.58 749.08" fill="#a9a59e"/><polygon points="1050.45 311.47 1061 343.98 1016.18 337.83 1050.45 311.47" fill="#cfc7bb"/><polygon points="1061 343.98 1050.45 384.4 1016.18 337.83 1061 343.98" fill="#c0b5af"/><polygon points="1061 545.21 988.94 517.97 1027.61 485.46 1061 545.21" fill="#8c8882"/><polygon points="1053.97 581.24 988.94 517.97 1061 545.21 1053.97 581.24" fill="#6f7571"/><polygon points="1056.61 729.75 1044.3 710.41 1065.39 686.69 1056.61 729.75" fill="#9e9e97"/><polygon points="1065.39 686.69 1044.3 710.41 1006.52 696.35 1065.39 686.69" fill="#94928e"/><polygon points="1050.45 311.47 1069.79 302.68 1061 343.98 1050.45 311.47" fill="#fcf7f2"/><polygon points="1047.82 299.17 1069.79 302.68 1050.45 311.47 1047.82 299.17" fill="#faf4ef"/><polygon points="1047.82 299.17 1051.33 253.47 1069.79 302.68 1047.82 299.17" fill="#fefcf9"/><polygon points="1075.94 637.48 1006.52 696.35 1022.34 601.45 1075.94 637.48" fill="#979894"/><polygon points="1065.39 686.69 1006.52 696.35 1075.94 637.48 1065.39 686.69" fill="#a9a6a2"/><polygon points="1075.94 749.08 1049.58 749.08 1056.61 729.75 1075.94 749.08" fill="#b5b0ad"/><polygon points="1069.79 302.68 1078.57 343.98 1061 343.98 1069.79 302.68" fill="#fcf7f2"/><polygon points="1017.06 448.55 1078.57 470.52 1027.61 485.46 1017.06 448.55" fill="#a19d99"/><polygon points="1031.12 423.07 1078.57 470.52 1017.06 448.55 1031.12 423.07" fill="#bdb8b5"/><polygon points="1082.09 606.72 1022.34 601.45 1053.97 581.24 1082.09 606.72" fill="#9b9a9a"/><polygon points="1075.94 637.48 1022.34 601.45 1082.09 606.72 1075.94 637.48" fill="#b6b0a8"/><polygon points="1056.61 729.75 1065.39 686.69 1082.97 732.38 1056.61 729.75" fill="#95938e"/><polygon points="1082.97 732.38 1075.94 749.08 1056.61 729.75 1082.97 732.38" fill="#a9a59e"/><polygon points="1050.45 384.4 1084.72 434.49 1031.12 423.07 1050.45 384.4" fill="#9d9890"/><polygon points="1031.12 423.07 1084.72 434.49 1078.57 470.52 1031.12 423.07" fill="#868a84"/><polygon points="1086.48 365.95 1084.72 434.49 1050.45 384.4 1086.48 365.95" fill="#b9b0a9"/><polygon points="1061 343.98 1086.48 365.95 1050.45 384.4 1061 343.98" fill="#c5bcb4"/><polygon points="1078.57 343.98 1086.48 365.95 1061 343.98 1078.57 343.98" fill="#e7e0d9"/><polygon points="1061 545.21 1090.88 575.97 1053.97 581.24 1061 545.21" fill="#b7b5b0"/><polygon points="1090.88 575.97 1082.09 606.72 1053.97 581.24 1090.88 575.97" fill="#a39f9b"/><polygon points="1095.27 540.82 1090.88 575.97 1061 545.21 1095.27 540.82" fill="#73726b"/><polygon points="1095.27 540.82 1061 545.21 1096.15 517.09 1095.27 540.82" fill="#5d5e59"/><polygon points="1096.15 517.09 1061 545.21 1027.61 485.46 1096.15 517.09" fill="#9c9690"/><polygon points="1027.61 485.46 1078.57 470.52 1096.15 517.09 1027.61 485.46" fill="#989592"/><polygon points="1069.79 302.68 1098.79 300.04 1078.57 343.98 1069.79 302.68" fill="#e3dfdc"/><polygon points="1051.33 253.47 1098.79 300.04 1069.79 302.68 1051.33 253.47" fill="#f5efeb"/><polygon points="1104.94 737.65 1075.94 749.08 1082.97 732.38 1104.94 737.65" fill="#ada8a5"/><polygon points="1078.57 343.98 1111.09 344.86 1086.48 365.95 1078.57 343.98" fill="#f6f0eb"/><polygon points="1098.79 300.04 1111.09 344.86 1078.57 343.98 1098.79 300.04" fill="#e3dfdc"/><polygon points="1078.57 470.52 1084.72 434.49 1119 476.67 1078.57 470.52" fill="#85827b"/><polygon points="1078.57 470.52 1119 476.67 1096.15 517.09 1078.57 470.52" fill="#9d9995"/><polygon points="1119 532.91 1090.88 575.97 1095.27 540.82 1119 532.91" fill="#928f89"/><polygon points="1096.15 517.09 1119 532.91 1095.27 540.82 1096.15 517.09" fill="#a39b97"/><polygon points="1119 476.67 1119 532.91 1096.15 517.09 1119 476.67" fill="#a09e97"/><polygon points="1086.48 365.95 1125.15 375.62 1084.72 434.49 1086.48 365.95" fill="#f4ede7"/><polygon points="1111.09 344.86 1125.15 375.62 1086.48 365.95 1111.09 344.86" fill="#e9e4e0"/><polygon points="1084.72 434.49 1127.78 429.22 1119 476.67 1084.72 434.49" fill="#e3ddd9"/><polygon points="1084.72 434.49 1125.15 375.62 1127.78 429.22 1084.72 434.49" fill="#eee8e2"/><polygon points="1082.97 732.38 1065.39 686.69 1129.54 679.66 1082.97 732.38" fill="#969288"/><polygon points="1129.54 679.66 1104.94 737.65 1082.97 732.38 1129.54 679.66" fill="#cdc8c2"/><polygon points="1129.54 679.66 1065.39 686.69 1075.94 637.48 1129.54 679.66" fill="#8f8d83"/><polygon points="1119 476.67 1142.72 481.94 1119 532.91 1119 476.67" fill="#ccc8c3"/><polygon points="1127.78 429.22 1142.72 481.94 1119 476.67 1127.78 429.22" fill="#e6dfdc"/><polygon points="1082.09 606.72 1143.6 604.09 1075.94 637.48 1082.09 606.72" fill="#8a857c"/><polygon points="1143.6 604.09 1129.54 679.66 1075.94 637.48 1143.6 604.09" fill="#757571"/><polygon points="1090.88 575.97 1143.6 604.09 1082.09 606.72 1090.88 575.97" fill="#89877c"/><polygon points="1119 532.91 1146.24 555.76 1090.88 575.97 1119 532.91" fill="#94918b"/><polygon points="1146.24 555.76 1143.6 604.09 1090.88 575.97 1146.24 555.76" fill="#838078"/><polygon points="1142.72 481.94 1146.24 555.76 1119 532.91 1142.72 481.94" fill="#cac4be"/><polygon points="1147.99 715.68 1104.94 737.65 1129.54 679.66 1147.99 715.68" fill="#b5b0ad"/><polygon points="1125.15 375.62 1154.14 423.95 1127.78 429.22 1125.15 375.62" fill="#cecac9"/><polygon points="1127.78 429.22 1168.2 456.46 1142.72 481.94 1127.78 429.22" fill="#e9e0dd"/><polygon points="1154.14 423.95 1168.2 456.46 1127.78 429.22 1154.14 423.95" fill="#d5cfcd"/><polygon points="1146.24 555.76 1186.66 604.97 1143.6 604.09 1146.24 555.76" fill="#c6bfb9"/><polygon points="1189.3 635.72 1147.99 715.68 1129.54 679.66 1189.3 635.72" fill="#bfb7b4"/><polygon points="1143.6 604.09 1189.3 635.72 1129.54 679.66 1143.6 604.09" fill="#a9a59e"/><polygon points="1186.66 604.97 1189.3 635.72 1143.6 604.09 1186.66 604.97" fill="#b6b2ad"/><polygon points="1142.72 481.94 1193.69 514.46 1146.24 555.76 1142.72 481.94" fill="#ccc8c2"/><polygon points="1168.2 456.46 1193.69 514.46 1142.72 481.94 1168.2 456.46" fill="#d4cdcb"/><polygon points="1193.69 514.46 1195.45 539.06 1146.24 555.76 1193.69 514.46" fill="#cac7c2"/><polygon points="1198.96 572.45 1186.66 604.97 1146.24 555.76 1198.96 572.45" fill="#d6cfcc"/><polygon points="1195.45 539.06 1198.96 572.45 1146.24 555.76 1195.45 539.06" fill="#cec9c8"/></g></svg>